<?xml version="1.0" encoding="UTF-8"?>
<svg width="40px" height="40px" viewBox="0 0 40 40" version="1.1" xmlns="http://www.w3.org/2000/svg" xmlns:xlink="http://www.w3.org/1999/xlink">
    <!-- Generator: Sketch 60.1 (88133) - https://sketch.com -->
    <title>ethbtc-ema-ratio-set copy</title>
    <desc>Created with Sketch.</desc>
    <g id="ethbtc-ema-ratio-set-copy" stroke="none" stroke-width="1" fill="none" fill-rule="evenodd">
        <circle id="Oval" fill="#001325" cx="20" cy="20" r="20"></circle>
        <path d="M20,40 C31.045695,40 40,31.045695 40,20 C40,8.954305 31.045695,4.61852778e-14 20,4.61852778e-14 C19.960858,4.61852778e-14 20.0256298,40 20,40 Z" id="Oval-Copy-2" fill="#1AC8E4"></path>
        <g id="Group-Copy-2" transform="translate(20.325146, 20.381066) rotate(-270.000000) translate(-20.325146, -20.381066) translate(-0.174854, 0.381066)"></g>
        <g id="Group-3" transform="translate(22.240059, 8.100000)" fill="#FFFFFF">
            <path d="M5.7725786,0.4 L5.77210553,3.342 L8.6883525,3.34285714 C8.91393122,3.34285714 9.13264896,3.34871185 9.34447099,3.36038654 L9.34400718,0.4 L11.4868643,0.4 L11.4875705,3.75388024 C13.2176735,4.36793048 14.1054954,5.66324593 14.1054954,7.59428571 L14.1054954,7.68571429 C14.1054954,9.4 13.2826382,10.6571429 11.4540668,11.1828571 C13.5797811,11.6171429 14.7226382,12.8285714 14.7226382,15.0228571 L14.7226382,15.1142857 C14.7226382,17.3549853 13.6218565,18.8020981 11.487342,19.3885753 L11.4868643,22.9070517 L9.34400718,22.9070517 L9.34457085,19.6808034 C9.22675883,19.6840755 9.10706522,19.6857143 8.98549536,19.6857143 L5.77210553,19.685 L5.7725786,22.9070517 L3.62972146,22.9070517 L3.62910553,19.685 L3.61510553,19.685 L3.6155341,19.7571429 L0.0441055324,19.7571429 L0.0441055324,17.6142857 L2.26510553,17.614 L2.26510553,5.471 L0.0582928898,5.47142857 L0.0582928898,3.32857143 L3.62972146,3.32857143 L3.62972146,0.4 L5.7725786,0.4 Z M8.23120965,12.44 L5.87692393,12.44 L5.87692393,17.1257143 L8.41406679,17.1257143 C10.2426382,17.1257143 11.0654954,16.3028571 11.0654954,14.8171429 L11.0654954,14.7257143 C11.0654954,13.2171429 10.2426382,12.44 8.23120965,12.44 Z M8.07120965,5.88 L5.87692393,5.88 L5.87692393,10.0628571 L8.09406679,10.0628571 C9.87692393,10.0628571 10.5854954,9.42285714 10.5854954,7.96 L10.5854954,7.86857143 C10.5854954,6.49714286 9.8083525,5.88 8.07120965,5.88 Z" id="Combined-Shape-Copy"></path>
        </g>
        <g id="Ethereum" transform="translate(-1.759941, 8.000000)" fill-rule="nonzero">
            <path d="M19.0234439,12.2982986 L12.4951473,22.761193 L6.00744389,12.3642986 L12.4832041,15.2057181 L19.0234439,12.2982986 Z M6.71244389,11.9892986 L12.4951473,12.8777473 L18.1364439,12.0102986 L12.4857053,14.4985144 L6.71244389,11.9892986 Z" id="Combined-Shape" fill="#1AC8E4"></path>
            <path d="M19.0231473,12.2984325 L12.4951473,22.761193 L12.4951473,15.2004325 L19.0231473,12.2984325 Z M12.4951473,0.896432508 L19.1511473,11.5634325 L12.4951473,14.4944325 L12.4951473,0.896432508 Z" id="Combined-Shape" fill="#E3FBFF"></path>
            <path d="M12.4951473,0.896432508 L19.1510007,11.5634325 L12.4857053,14.4985144 L5.81600071,11.5984325 L12.4951473,0.896432508 Z" id="Combined-Shape" fill="#1AC8E4"></path>
            <path d="M12.4951473,0.896432508 L19.1511473,11.5634325 L12.4951473,14.4944325 L12.4951473,0.896432508 Z" id="Combined-Shape" fill="#FFFFFF"></path>
            <path d="M12.4951473,9.59010252 L19.1074007,11.5821025 L12.4857053,14.4985144 L5.82040068,11.6011025 L12.4951473,9.59010252 Z" id="Combined-Shape" fill-opacity="0.501748252" fill="#CCF8FF"></path>
        </g>
    </g>
</svg>