<?xml version="1.0" encoding="UTF-8"?>
<svg width="40px" height="40px" viewBox="0 0 40 40" version="1.1" xmlns="http://www.w3.org/2000/svg" xmlns:xlink="http://www.w3.org/1999/xlink">
    <!-- Generator: Sketch 61.2 (89653) - https://sketch.com -->
    <title>eth-26-day-exponential-moving-average-set-ctoken</title>
    <desc>Created with Sketch.</desc>
    <defs>
        <linearGradient x1="50%" y1="0%" x2="50%" y2="100%" id="linearGradient-1">
            <stop stop-color="#00D598" offset="0%"></stop>
            <stop stop-color="#9669ED" offset="100%"></stop>
        </linearGradient>
    </defs>
    <g id="eth-26-day-exponential-moving-average-set-ctoken" stroke="none" stroke-width="1" fill="none" fill-rule="evenodd">
        <circle id="Oval" fill="#000823" cx="20" cy="20" r="20"></circle>
        <path d="M20,40 C31.045695,40 40,31.045695 40,20 C40,8.954305 31.045695,1.59872116e-13 20,1.59872116e-13 C19.960858,1.59872116e-13 20.0256298,40 20,40 Z" id="Oval-Copy-2" fill="#2C54E5"></path>
        <g id="Ethereum" transform="translate(4.381066, 4.781066)" fill-rule="nonzero">
            <path d="M23.7803049,15.9733733 L15.6189342,29.0514912 L7.50830486,16.0543733 L15.6040052,19.6071476 L23.7803049,15.9733733 Z M8.38930486,15.5853733 L15.6189342,16.6971842 L22.6693049,15.6133733 L15.6071317,18.723143 L8.38930486,15.5853733 Z" id="Combined-Shape" fill="#5E86CD"></path>
            <path d="M23.7789342,15.9735406 L15.6189342,29.0514912 L15.6189342,19.6005406 L23.7789342,15.9735406 Z M15.6189342,1.72054063 L23.9389342,15.0535406 L15.6189342,18.7175406 L15.6189342,1.72054063 Z" id="Combined-Shape" fill="#FFFFFF"></path>
            <path d="M15.6189342,1.72054063 L23.9390009,15.0535406 L15.6071317,18.723143 L7.27100088,15.0995406 L15.6189342,1.72054063 Z" id="Combined-Shape" fill="#5E86CD"></path>
            <path d="M15.6189342,1.72054063 L23.9389342,15.0535406 L15.6189342,18.7175406 L15.6189342,1.72054063 Z" id="Combined-Shape" fill="#FFFFFF"></path>
            <path d="M15.6189342,12.5876282 L23.8852509,15.0766282 L15.6071317,18.723143 L7.27425085,15.1006282 L15.6189342,12.5876282 Z" id="Combined-Shape" fill-opacity="0.503359921" fill="#B1CBF9"></path>
        </g>
        <g id="Group-2" transform="translate(21.180000, 0.000000)" fill="#000823">
            <circle id="Oval" cx="5.43414999" cy="4.71893415" r="4.71893415"></circle>
            <circle id="Oval-Copy-3" cx="12.2262137" cy="4.71893415" r="4.71893415"></circle>
            <rect id="Rectangle" x="5.43414999" y="2.27373675e-13" width="7.35647282" height="9.4378683"></rect>
        </g>
        <path d="M25.3564426,7.21893415 L25.3564426,7.03173415 L27.4624426,4.80873415 C27.9928426,4.24713415 28.3126426,3.75573415 28.3126426,3.22533415 C28.3126426,2.70273415 28.0162426,2.37513415 27.4780426,2.37513415 C26.9242426,2.37513415 26.5732426,2.69493415 26.4796426,3.48273415 L25.5280426,3.48273415 C25.5982426,2.26593415 26.3314426,1.56393415 27.5092426,1.56393415 C28.6636426,1.56393415 29.3500426,2.22693415 29.3500426,3.20973415 C29.3500426,3.93513415 28.9210426,4.56693415 28.2580426,5.20653415 L27.0178426,6.41553415 L29.3890426,6.41553415 L29.3890426,7.21893415 L25.3564426,7.21893415 Z M32.3296426,7.29693415 C30.7072426,7.29693415 30.1456426,6.15813415 30.1456426,4.68393415 L30.1456426,4.55133415 C30.1456426,2.61693415 31.1206426,1.56393415 32.4544426,1.56393415 C33.4684426,1.56393415 34.1392426,2.06313415 34.2718426,3.03813415 L33.3046426,3.03813415 C33.2032426,2.61693415 32.9848426,2.36733415 32.4466426,2.36733415 C31.6978426,2.36733415 31.2064426,3.03033415 31.1752426,4.30173415 C31.4326426,3.87273415 31.8928426,3.58413415 32.5558426,3.58413415 C33.6244426,3.58413415 34.3888426,4.31733415 34.3888426,5.40153415 C34.3888426,6.53253415 33.5932426,7.29693415 32.3296426,7.29693415 Z M32.3140426,6.53253415 C32.9380426,6.53253415 33.3592426,6.08793415 33.3592426,5.42493415 C33.3592426,4.75413415 32.9536426,4.30173415 32.3140426,4.30173415 C31.6822426,4.30173415 31.2376426,4.74633415 31.2376426,5.36253415 C31.2376426,6.10353415 31.6822426,6.53253415 32.3140426,6.53253415 Z" id="26" fill="#FFFFFF" fill-rule="nonzero"></path>
        <g id="Group-3-Copy" transform="translate(0.000000, 28.060000)">
            <circle id="Oval" fill="#D49300" cx="5.9" cy="5.9" r="5.9"></circle>
            <circle id="Oval-Copy-6" stroke="url(#linearGradient-1)" stroke-width="2.5" fill="#FFFFFF" cx="5.9" cy="5.9" r="4.65"></circle>
            <path d="M9.6058816,10.4911657 C10.9441738,9.40957293 11.8,7.75473093 11.8,5.9 C11.8,4.03657447 10.9361311,2.37491633 9.5870289,1.29366131 C8.1956763,3.2978871 7.0833164,4.925 6.24994921,6.175 C7.0833164,7.425 8.20196053,8.86372188 9.6058816,10.4911657 Z" id="Oval-Copy-4" fill="#FFFFFF"></path>
        </g>
        <g id="Group-3-Copy" transform="translate(0.000000, 28.060000)">
            <circle id="Oval" fill="#FFFFFF" cx="5.9" cy="5.9" r="5.9"></circle>
            <path d="M5.9,2.7533531e-14 C9.15848002,2.7533531e-14 11.8,2.64151998 11.8,5.9 C11.8,9.15848002 9.15848002,11.8 5.9,11.8 C2.64151998,11.8 -1.99840144e-13,9.15848002 -1.99840144e-13,5.9 C-1.99840144e-13,2.64151998 2.64151998,2.7533531e-14 5.9,2.7533531e-14 Z M5.9,2.5 C4.02223185,2.5 2.5,4.02223185 2.5,5.9 C2.5,7.77776815 4.02223185,9.3 5.9,9.3 C7.77776815,9.3 9.3,7.77776815 9.3,5.9 C9.3,4.02223185 7.77776815,2.5 5.9,2.5 Z" id="Oval-Copy-6" fill="url(#linearGradient-1)" fill-rule="nonzero"></path>
            <path d="M9.6058816,10.4911657 C10.9441738,9.40957293 11.8,7.75473093 11.8,5.9 C11.8,4.03657447 10.9361311,2.37491633 9.5870289,1.29366131 C8.1956763,3.2978871 7.0833164,4.925 6.24994921,6.175 C7.0833164,7.425 8.20196053,8.86372188 9.6058816,10.4911657 Z" id="Oval-Copy-4" fill="#FFFFFF"></path>
        </g>
    </g>
</svg>