<?xml version="1.0" encoding="UTF-8"?>
<svg width="40px" height="40px" viewBox="0 0 40 40" version="1.1" xmlns="http://www.w3.org/2000/svg" xmlns:xlink="http://www.w3.org/1999/xlink">
    <!-- Generator: Sketch 61.2 (89653) - https://sketch.com -->
    <title>eth-20-day-moving-average-set-ctoken</title>
    <desc>Created with Sketch.</desc>
    <defs>
        <linearGradient x1="50%" y1="0%" x2="50%" y2="100%" id="linearGradient-1">
            <stop stop-color="#00D598" offset="0%"></stop>
            <stop stop-color="#9669ED" offset="100%"></stop>
        </linearGradient>
    </defs>
    <g id="eth-20-day-moving-average-set-ctoken" stroke="none" stroke-width="1" fill="none" fill-rule="evenodd">
        <circle id="Oval" fill="#001E4C" cx="20" cy="20" r="20"></circle>
        <path d="M20,40 C31.045695,40 40,31.045695 40,20 C40,8.954305 31.045695,1.59872116e-13 20,1.59872116e-13 C19.960858,1.59872116e-13 20.0256298,40 20,40 Z" id="Oval-Copy-2" fill="#11CEBE"></path>
        <g id="Ethereum" transform="translate(4.381066, 4.781066)" fill-rule="nonzero">
            <path d="M23.7803049,15.9733733 L15.6189342,29.0514912 L7.50830486,16.0543733 L15.6040052,19.6071476 L23.7803049,15.9733733 Z M8.38930486,15.5853733 L15.6189342,16.6971842 L22.6693049,15.6133733 L15.6071317,18.723143 L8.38930486,15.5853733 Z" id="Combined-Shape" fill="#5ECDB8"></path>
            <path d="M23.7789342,15.9735406 L15.6189342,29.0514912 L15.6189342,19.6005406 L23.7789342,15.9735406 Z M15.6189342,1.72054063 L23.9389342,15.0535406 L15.6189342,18.7175406 L15.6189342,1.72054063 Z" id="Combined-Shape" fill="#FFFFFF"></path>
            <path d="M15.6189342,1.72054063 L23.9390009,15.0535406 L15.6071317,18.723143 L7.27100088,15.0995406 L15.6189342,1.72054063 Z" id="Combined-Shape" fill="#5ECDC1"></path>
            <path d="M15.6189342,1.72054063 L23.9389342,15.0535406 L15.6189342,18.7175406 L15.6189342,1.72054063 Z" id="Combined-Shape" fill="#FFFFFF"></path>
            <path d="M15.6189342,12.5876282 L23.8852509,15.0766282 L15.6071317,18.723143 L7.27425085,15.1006282 L15.6189342,12.5876282 Z" id="Combined-Shape" fill-opacity="0.5" fill="#9AFFE5"></path>
        </g>
        <g id="Group-2" transform="translate(22.180000, 0.000000)" fill="#001E4C">
            <circle id="Oval" cx="4.71893415" cy="4.71893415" r="4.71893415"></circle>
            <circle id="Oval-Copy-3" cx="10.9210666" cy="4.71893415" r="4.71893415"></circle>
            <rect id="Rectangle" x="4.71893415" y="1.98951966e-13" width="6.76654152" height="9.4378683"></rect>
        </g>
        <path d="M25.1289,7.36633624 L25.1289,7.17913624 L27.2349,4.95613624 C27.7653,4.39453624 28.0851,3.90313624 28.0851,3.37273624 C28.0851,2.85013624 27.7887,2.52253624 27.2505,2.52253624 C26.6967,2.52253624 26.3457,2.84233624 26.2521,3.63013624 L25.3005,3.63013624 C25.3707,2.41333624 26.1039,1.71133624 27.2817,1.71133624 C28.4361,1.71133624 29.1225,2.37433624 29.1225,3.35713624 C29.1225,4.08253624 28.6935,4.71433624 28.0305,5.35393624 L26.7903,6.56293624 L29.1615,6.56293624 L29.1615,7.36633624 L25.1289,7.36633624 Z M32.2815,6.61753624 C33.1395,6.61753624 33.5529,5.96233624 33.5529,4.69873624 L33.5529,4.42573624 C33.5529,3.24013624 33.1005,2.52253624 32.2659,2.52253624 C31.4235,2.52253624 30.9633,3.19333624 30.9633,4.43353624 L30.9633,4.71433624 C30.9633,5.97793624 31.4469,6.61753624 32.2815,6.61753624 Z M32.2581,7.44433624 C30.8385,7.44433624 29.9181,6.39913624 29.9181,4.72213624 L29.9181,4.44133624 C29.9181,2.74873624 30.8541,1.71133624 32.2581,1.71133624 C33.6699,1.71133624 34.5903,2.74093624 34.5903,4.41793624 L34.5903,4.69873624 C34.5903,6.37573624 33.7167,7.44433624 32.2581,7.44433624 Z" id="20" fill="#FFFFFF" fill-rule="nonzero"></path>
        <g id="Group-3-Copy" transform="translate(0.000000, 28.060000)">
            <circle id="Oval" fill="#D49300" cx="5.9" cy="5.9" r="5.9"></circle>
            <circle id="Oval-Copy-6" stroke="url(#linearGradient-1)" stroke-width="2.5" fill="#FFFFFF" cx="5.9" cy="5.9" r="4.65"></circle>
            <path d="M9.6058816,10.4911657 C10.9441738,9.40957293 11.8,7.75473093 11.8,5.9 C11.8,4.03657447 10.9361311,2.37491633 9.5870289,1.29366131 C8.1956763,3.2978871 7.0833164,4.925 6.24994921,6.175 C7.0833164,7.425 8.20196053,8.86372188 9.6058816,10.4911657 Z" id="Oval-Copy-4" fill="#FFFFFF"></path>
        </g>
        <g id="Group-3-Copy" transform="translate(0.000000, 28.060000)">
            <circle id="Oval" fill="#FFFFFF" cx="5.9" cy="5.9" r="5.9"></circle>
            <path d="M5.9,2.7533531e-14 C9.15848002,2.7533531e-14 11.8,2.64151998 11.8,5.9 C11.8,9.15848002 9.15848002,11.8 5.9,11.8 C2.64151998,11.8 -1.99840144e-13,9.15848002 -1.99840144e-13,5.9 C-1.99840144e-13,2.64151998 2.64151998,2.7533531e-14 5.9,2.7533531e-14 Z M5.9,2.5 C4.02223185,2.5 2.5,4.02223185 2.5,5.9 C2.5,7.77776815 4.02223185,9.3 5.9,9.3 C7.77776815,9.3 9.3,7.77776815 9.3,5.9 C9.3,4.02223185 7.77776815,2.5 5.9,2.5 Z" id="Oval-Copy-6" fill="url(#linearGradient-1)" fill-rule="nonzero"></path>
            <path d="M9.6058816,10.4911657 C10.9441738,9.40957293 11.8,7.75473093 11.8,5.9 C11.8,4.03657447 10.9361311,2.37491633 9.5870289,1.29366131 C8.1956763,3.2978871 7.0833164,4.925 6.24994921,6.175 C7.0833164,7.425 8.20196053,8.86372188 9.6058816,10.4911657 Z" id="Oval-Copy-4" fill="#FFFFFF"></path>
        </g>
    </g>
</svg>