<?xml version="1.0" encoding="UTF-8"?>
<svg width="40px" height="40px" viewBox="0 0 40 40" version="1.1" xmlns="http://www.w3.org/2000/svg" xmlns:xlink="http://www.w3.org/1999/xlink">
    <!-- Generator: Sketch 60.1 (88133) - https://sketch.com -->
    <title>eth-rsi-40-60-set-ctoken</title>
    <desc>Created with Sketch.</desc>
    <defs>
        <linearGradient x1="50%" y1="0%" x2="50%" y2="100%" id="linearGradient-1">
            <stop stop-color="#00D598" offset="0%"></stop>
            <stop stop-color="#9669ED" offset="100%"></stop>
        </linearGradient>
    </defs>
    <g id="eth-rsi-40-60-set-ctoken" stroke="none" stroke-width="1" fill="none" fill-rule="evenodd">
        <circle id="Oval" fill="#001325" cx="20" cy="20" r="20"></circle>
        <path d="M20,40 C31.045695,40 40,31.045695 40,20 C40,8.954305 31.045695,1.59872116e-13 20,1.59872116e-13 C19.960858,1.59872116e-13 20.0256298,40 20,40 Z" id="Oval-Copy-2" fill="#1AC8E4"></path>
        <g id="Ethereum" transform="translate(4.381066, 4.781066)" fill-rule="nonzero">
            <path d="M23.7803049,15.9733733 L15.6189342,29.0514912 L7.50830486,16.0543733 L15.6040052,19.6071476 L23.7803049,15.9733733 Z M8.38930486,15.5853733 L15.6189342,16.6971842 L22.6693049,15.6133733 L15.6071317,18.723143 L8.38930486,15.5853733 Z" id="Combined-Shape" fill="#1AC8E4"></path>
            <path d="M23.7789342,15.9735406 L15.6189342,29.0514912 L15.6189342,19.6005406 L23.7789342,15.9735406 Z M15.6189342,1.72054063 L23.9389342,15.0535406 L15.6189342,18.7175406 L15.6189342,1.72054063 Z" id="Combined-Shape" fill="#FFFFFF"></path>
            <path d="M15.6189342,1.72054063 L23.9390009,15.0535406 L15.6071317,18.723143 L7.27100088,15.0995406 L15.6189342,1.72054063 Z" id="Combined-Shape" fill="#1AC8E4"></path>
            <path d="M15.6189342,1.72054063 L23.9389342,15.0535406 L15.6189342,18.7175406 L15.6189342,1.72054063 Z" id="Combined-Shape" fill="#FFFFFF"></path>
            <path d="M15.6189342,12.5876282 L23.8852509,15.0766282 L15.6071317,18.723143 L7.27425085,15.1006282 L15.6189342,12.5876282 Z" id="Combined-Shape" fill-opacity="0.500327797" fill="#C0F6FF"></path>
        </g>
        <g id="Group-3-Copy" transform="translate(0.000000, 28.060000)">
            <circle id="Oval" fill="#FFFFFF" cx="5.9" cy="5.9" r="5.9"></circle>
            <path d="M5.9,2.7533531e-14 C9.15848002,2.7533531e-14 11.8,2.64151998 11.8,5.9 C11.8,9.15848002 9.15848002,11.8 5.9,11.8 C2.64151998,11.8 -1.99840144e-13,9.15848002 -1.99840144e-13,5.9 C-1.99840144e-13,2.64151998 2.64151998,2.7533531e-14 5.9,2.7533531e-14 Z M5.9,2.5 C4.02223185,2.5 2.5,4.02223185 2.5,5.9 C2.5,7.77776815 4.02223185,9.3 5.9,9.3 C7.77776815,9.3 9.3,7.77776815 9.3,5.9 C9.3,4.02223185 7.77776815,2.5 5.9,2.5 Z" id="Oval-Copy-6" fill="url(#linearGradient-1)" fill-rule="nonzero"></path>
            <path d="M9.6058816,10.4911657 C10.9441738,9.40957293 11.8,7.75473093 11.8,5.9 C11.8,4.03657447 10.9361311,2.37491633 9.5870289,1.29366131 C8.1956763,3.2978871 7.0833164,4.925 6.24994921,6.175 C7.0833164,7.425 8.20196053,8.86372188 9.6058816,10.4911657 Z" id="Oval-Copy-4" fill="#FFFFFF"></path>
        </g>
    </g>
</svg>