<?xml version="1.0" encoding="UTF-8"?>
<svg width="40px" height="40px" viewBox="0 0 40 40" version="1.1" xmlns="http://www.w3.org/2000/svg" xmlns:xlink="http://www.w3.org/1999/xlink">
    <!-- Generator: Sketch 59.1 (86144) - https://sketch.com -->
    <title>inverse-eth-20-day-moving-average-set</title>
    <desc>Created with Sketch.</desc>
    <g id="inverse-eth-20-day-moving-average-set" stroke="none" stroke-width="1" fill="none" fill-rule="evenodd">
        <circle id="Oval" fill="#240017" cx="20" cy="20.0092198" r="20"></circle>
        <path d="M20,40.0092198 C31.045695,40.0092198 40,31.0549148 40,20.0092198 C40,8.96352477 31.045695,0.00921976597 20,0.00921976597 C19.960858,0.00921976597 20.0256298,40.0092198 20,40.0092198 Z" id="Oval-Copy-2" fill="#E53042"></path>
        <g id="Group-Copy-2" transform="translate(20.325146, 19.790286) rotate(-270.000000) translate(-20.325146, -19.790286) translate(-0.174854, -0.209714)"></g>
        <g id="Group-2" transform="translate(21.180000, 0.009220)" fill="#240017">
            <circle id="Oval" cx="5.43414999" cy="4.71893415" r="4.71893415"></circle>
            <circle id="Oval-Copy-3" cx="12.2262137" cy="4.71893415" r="4.71893415"></circle>
            <rect id="Rectangle" x="5.43414999" y="2.27373675e-13" width="7.35647282" height="9.4378683"></rect>
        </g>
        <path d="M25.1289,7.37555601 L25.1289,7.18835601 L27.2349,4.96535601 C27.7653,4.40375601 28.0851,3.91235601 28.0851,3.38195601 C28.0851,2.85935601 27.7887,2.53175601 27.2505,2.53175601 C26.6967,2.53175601 26.3457,2.85155601 26.2521,3.63935601 L25.3005,3.63935601 C25.3707,2.42255601 26.1039,1.72055601 27.2817,1.72055601 C28.4361,1.72055601 29.1225,2.38355601 29.1225,3.36635601 C29.1225,4.09175601 28.6935,4.72355601 28.0305,5.36315601 L26.7903,6.57215601 L29.1615,6.57215601 L29.1615,7.37555601 L25.1289,7.37555601 Z M32.2815,6.62675601 C33.1395,6.62675601 33.5529,5.97155601 33.5529,4.70795601 L33.5529,4.43495601 C33.5529,3.24935601 33.1005,2.53175601 32.2659,2.53175601 C31.4235,2.53175601 30.9633,3.20255601 30.9633,4.44275601 L30.9633,4.72355601 C30.9633,5.98715601 31.4469,6.62675601 32.2815,6.62675601 Z M32.2581,7.45355601 C30.8385,7.45355601 29.9181,6.40835601 29.9181,4.73135601 L29.9181,4.45055601 C29.9181,2.75795601 30.8541,1.72055601 32.2581,1.72055601 C33.6699,1.72055601 34.5903,2.75015601 34.5903,4.42715601 L34.5903,4.70795601 C34.5903,6.38495601 33.7167,7.45355601 32.2581,7.45355601 Z" id="20" fill="#FFFFFF" fill-rule="nonzero"></path>
        <g id="Ethereum" transform="translate(4.381066, 4.790286)" fill-rule="nonzero">
            <path d="M23.7803049,15.3733733 L15.6189342,28.4514912 L7.50830486,15.4543733 L15.6040052,19.0071476 L23.7803049,15.3733733 Z M8.38930486,14.9853733 L15.6189342,16.0971842 L22.6693049,15.0133733 L15.6071317,18.123143 L8.38930486,14.9853733 Z" id="Combined-Shape" fill="#FF8165"></path>
            <path d="M23.7789342,15.3735406 L15.6189342,28.4514912 L15.6189342,19.0005406 L23.7789342,15.3735406 Z M15.6189342,1.12054063 L23.9389342,14.4535406 L15.6189342,18.1175406 L15.6189342,1.12054063 Z" id="Combined-Shape" fill="#E8F9FF"></path>
            <path d="M15.6189342,1.12054063 L23.9390009,14.4535406 L15.6071317,18.123143 L7.27100088,14.4995406 L15.6189342,1.12054063 Z" id="Combined-Shape" fill="#FF8165"></path>
            <path d="M15.6189342,1.12054063 L23.9389342,14.4535406 L15.6189342,18.1175406 L15.6189342,1.12054063 Z" id="Combined-Shape" fill="#FFFFFF"></path>
            <path d="M15.6189342,11.9876282 L23.8852509,14.4766282 L15.6071317,18.123143 L7.27425085,14.5006282 L15.6189342,11.9876282 Z" id="Combined-Shape" fill-opacity="0.497077142" fill="#EC080B"></path>
        </g>
    </g>
</svg>