<?xml version="1.0" encoding="UTF-8"?>
<svg width="40px" height="40px" viewBox="0 0 40 40" version="1.1" xmlns="http://www.w3.org/2000/svg" xmlns:xlink="http://www.w3.org/1999/xlink">
    <!-- Generator: Sketch 59.1 (86144) - https://sketch.com -->
    <title>inverse-eth-50-day-moving-average-set</title>
    <desc>Created with Sketch.</desc>
    <g id="inverse-eth-50-day-moving-average-set" stroke="none" stroke-width="1" fill="none" fill-rule="evenodd">
        <circle id="Oval" fill="#240017" cx="20" cy="20.0092198" r="20"></circle>
        <path d="M20,40.0092198 C31.045695,40.0092198 40,31.0549148 40,20.0092198 C40,8.96352477 31.045695,0.00921976597 20,0.00921976597 C19.960858,0.00921976597 20.0256298,40.0092198 20,40.0092198 Z" id="Oval-Copy-2" fill="#E53042"></path>
        <g id="Group-Copy-2" transform="translate(20.325146, 19.790286) rotate(-270.000000) translate(-20.325146, -19.790286) translate(-0.174854, -0.209714)"></g>
        <g id="Group-2" transform="translate(21.180000, 0.009220)" fill="#240017">
            <circle id="Oval" cx="5.43414999" cy="4.71893415" r="4.71893415"></circle>
            <circle id="Oval-Copy-3" cx="12.2262137" cy="4.71893415" r="4.71893415"></circle>
            <rect id="Rectangle" x="5.43414999" y="2.27373675e-13" width="7.35647282" height="9.4378683"></rect>
        </g>
        <path d="M27.1803,7.36828561 C28.3815,7.36828561 29.2317,6.62728561 29.2317,5.44948561 C29.2317,4.27948561 28.5219,3.57748561 27.5157,3.57748561 C26.9229,3.57748561 26.5329,3.79588561 26.3145,4.04548561 L26.3223,2.53228561 L28.9119,2.53228561 L28.9119,1.71328561 L25.5267,1.71328561 L25.4799,4.81768561 L26.0103,4.81768561 C26.2599,4.52908561 26.6031,4.33408561 27.1725,4.33408561 C27.7887,4.33408561 28.1787,4.76308561 28.1787,5.43388561 C28.1787,6.12028561 27.8121,6.56488561 27.1725,6.56488561 C26.4549,6.56488561 26.2443,6.20608561 26.1585,5.69128561 L25.1913,5.69128561 C25.2537,6.65068561 25.8699,7.36828561 27.1803,7.36828561 Z M32.3595,1.63528561 C33.7713,1.63528561 34.6917,2.66488561 34.6917,4.34188561 L34.6917,4.62268561 C34.6917,6.29968561 33.8181,7.36828561 32.3595,7.36828561 C30.9399,7.36828561 30.0195,6.32308561 30.0195,4.64608561 L30.0195,4.36528561 C30.0195,2.67268561 30.9555,1.63528561 32.3595,1.63528561 Z M32.3673,2.44648561 C31.5249,2.44648561 31.0647,3.11728561 31.0647,4.35748561 L31.0647,4.35748561 L31.0647,4.63828561 C31.0647,5.90188561 31.5483,6.54148561 32.3829,6.54148561 C33.2409,6.54148561 33.6543,5.88628561 33.6543,4.62268561 L33.6543,4.62268561 L33.6543,4.34968561 C33.6543,3.16408561 33.2019,2.44648561 32.3673,2.44648561 Z" id="50" fill="#FFFFFF" fill-rule="nonzero"></path>
        <g id="Ethereum" transform="translate(4.381066, 4.790286)" fill-rule="nonzero">
            <path d="M23.7803049,15.3733733 L15.6189342,28.4514912 L7.50830486,15.4543733 L15.6040052,19.0071476 L23.7803049,15.3733733 Z M8.38930486,14.9853733 L15.6189342,16.0971842 L22.6693049,15.0133733 L15.6071317,18.123143 L8.38930486,14.9853733 Z" id="Combined-Shape" fill="#FF8165"></path>
            <path d="M23.7789342,15.3735406 L15.6189342,28.4514912 L15.6189342,19.0005406 L23.7789342,15.3735406 Z M15.6189342,1.12054063 L23.9389342,14.4535406 L15.6189342,18.1175406 L15.6189342,1.12054063 Z" id="Combined-Shape" fill="#E8F9FF"></path>
            <path d="M15.6189342,1.12054063 L23.9390009,14.4535406 L15.6071317,18.123143 L7.27100088,14.4995406 L15.6189342,1.12054063 Z" id="Combined-Shape" fill="#FF8165"></path>
            <path d="M15.6189342,1.12054063 L23.9389342,14.4535406 L15.6189342,18.1175406 L15.6189342,1.12054063 Z" id="Combined-Shape" fill="#FFFFFF"></path>
            <path d="M15.6189342,11.9876282 L23.8852509,14.4766282 L15.6071317,18.123143 L7.27425085,14.5006282 L15.6189342,11.9876282 Z" id="Combined-Shape" fill-opacity="0.497077142" fill="#EC080B"></path>
        </g>
    </g>
</svg>