<?xml version="1.0" standalone="no"?><!-- Generator: Gravit.io --><svg xmlns="http://www.w3.org/2000/svg" xmlns:xlink="http://www.w3.org/1999/xlink" style="isolation:isolate" viewBox="0 0 1000 1000" width="1000" height="1000"><path d=" M 18.999999999999545 493.49999999999994 C 18.99999999999949 421.1640211640213 82.24867724867676 271.4999999999998 248.9999999999996 271.4999999999999 Q 397.88359788359793 271.4999999999998 531.9999999999995 493.49999999999994 Q 653.6772486772481 674.5 760.9999999999998 674.5 Q 861.0846560846558 674.4999999999998 919.9999999999998 577.5 L 978.9999999999998 577.5 Q 906.5873015873012 728.5 761 728.5 C 625.1058201058197 728.4999999999998 559.8434671813498 612.6298226087349 483.9999999999997 516.4999999999998 C 413.23280423280386 426.8042328042328 374.3121693121689 328.49999999999983 248.9999999999996 328.4999999999999 C 170.07936507936466 328.49999999999983 73.99999999999937 371.4285714285715 73.99999999999949 493.49999999999994 C 73.99999999999937 568.2539682539682 113.99470899470856 674.4999999999998 248.9999999999996 674.5 Q 347.8571428571425 674.5 439.9999999999996 545.4999999999998 L 473.9999999999996 594.5 Q 369.02116402116366 728.5 248.9999999999996 728.5 C 171.13756613756567 728.5 18.99999999999949 670.899470899471 18.999999999999545 493.49999999999994 Z " fill="rgb(152,152,152)"/><path d=" M 561.9999999999998 454.49999999999983 L 527 402.49999999999994 Q 640.4444444444446 271.4999999999998 752 271.4999999999999 C 844.8845316637298 271.49999999999983 869.0245219900709 297.1461583219919 921 347 C 968.1800724698812 392.2541843447995 978.9999999999997 481.99999999999994 978.9999999999998 534.5 L 710.9999999999998 534.5 L 710.9999999999998 491.99999999999983 L 929 491.99999999999983 Q 899.7037037037037 328.99999999999994 756 329 Q 647.6190476190477 328.99999999999994 561.9999999999998 454.49999999999983 Z " fill="rgb(152,152,152)"/></svg>