<?xml version="1.0" standalone="no"?><!-- Generator: Gravit.io --><svg xmlns="http://www.w3.org/2000/svg" xmlns:xlink="http://www.w3.org/1999/xlink" style="isolation:isolate" viewBox="0 0 4096 4096" width="4096" height="4096"><linearGradient id="_lgradient_0" x1="39.936148693495085%" y1="82.20668420617395%" x2="69.5652501929439%" y2="-13.268197177508345%"><stop offset="3.9196540000000004%" stop-opacity="1" style="stop-color:rgb(44,178,225)"/><stop offset="100%" stop-opacity="1" style="stop-color:rgb(44,244,225)"/></linearGradient><path d=" M 1038.1099076138912 1650.8735266008296 C 1038.1099076138912 1017.764229096592 1552.1143405970704 503.7597961134127 2185.223638101308 503.75979611341245 C 2818.3329356055456 503.75979611341245 3332.3373685887245 1017.7642290965916 3332.337368588725 1650.873526600829 C 3332.3373685887254 2283.9828241050664 2818.3329356055456 2797.987257088246 2185.2236381013086 2797.987257088246 C 1552.114340597071 2797.987257088246 1038.1099076138912 2283.982824105067 1038.1099076138912 1650.8735266008296 Z " fill="url(#_lgradient_0)"/><linearGradient id="_lgradient_1" x1="-24.618574514038816%" y1="3.4570125427593856%" x2="147.59438444924422%" y2="127.72873432155087%"><stop offset="3.9196540000000004%" stop-opacity="1" style="stop-color:rgb(44,244,225)"/><stop offset="100%" stop-opacity="1" style="stop-color:rgb(44,178,225)"/></linearGradient><path d=" M 2990.8591908251037 1306.8658808537753 C 3073.0669002867157 1418.1624721248807 3116.067856005097 1549.6948072634598 3116.067856005097 1686.2860783689073 C 3116.067856005097 1851.9662312838484 3047.7722204523734 2004.9990442816184 2931.4166932143994 2128.942975469895 L 3002.2417967505576 2393.2723797387703 L 3217.246575342466 2393.2723797387703 L 3443.6339598598274 2136.5313794201975 L 3504.341191462249 1760.9053838802167 L 3516.98853137942 1537.0474673462888 L 3293.1306148454923 1284.1006690028676 L 2990.8591908251037 1306.8658808537753 Z " fill="url(#_lgradient_1)"/><linearGradient id="_lgradient_2" x1="21.50989384288747%" y1="17.32014892685065%" x2="69.35133757961782%" y2="84.77525186158567%"><stop offset="0%" stop-opacity="1" style="stop-color:rgb(44,229,225)"/><stop offset="100%" stop-opacity="1" style="stop-color:rgb(44,178,225)"/></linearGradient><path d=" M 499.33322714240234 2423.6259955399805 L 538.5399808856325 2579.188276521185 C 538.5399808856325 2579.188276521185 1001.4326218540941 3529.003504300733 2043.5734310289904 3881.8642879898052 C 2043.5734310289904 3881.8642879898052 3019.9480726345973 3477.149410640331 3441.104491876394 2790.398853137942 L 2831.5027078687485 2283.2405224593817 C 2831.5027078687485 2283.2405224593817 2553.261229690985 2504.5689710098754 2139.693214399491 2504.5689710098754 C 1726.125199107997 2504.5689710098754 1164.5833067856013 2257.94584262504 1164.5833067856013 1749.5227779547624 C 1164.5833067856013 1241.0997132844852 1746.3609429754706 1055.1838165020704 1746.3609429754706 1055.1838165020704 L 1498.4730805989177 994.4765848996495 L 864.8413507486464 994.4765848996495 L 462.65594138260616 1963.2628225549533 L 499.33322714240234 2423.6259955399805 Z " fill="url(#_lgradient_2)"/><linearGradient id="_lgradient_3" x1="49.9914990266061%" y1="99.9586134855625%" x2="49.99149902660611%" y2="0%"><stop offset="0%" stop-opacity="1" style="stop-color:rgb(0,0,0)"/><stop offset="100%" stop-opacity="1" style="stop-color:rgb(13,13,13)"/></linearGradient><path d=" M 4001.381650207073 1402.9856642242753 C 3983.675374323034 1385.2793883402358 3470.1933736858878 841.4437719018797 2062.5444409047473 357.0506530742277 L 2053.6913029627276 353.2564510990764 C 690.3080598916858 821.2080280344061 103.47148773494814 1402.9856642242753 103.47148773494814 1402.9856642242753 C 156.59031538706665 1712.8454921949665 290.65211850908 2058.117871933737 412.0665817139223 2326.2414781777634 C 422.18445364765915 2349.0066900286715 584.0704045874488 2634.836572156738 704.2201338005741 2790.398853137942 C 633.3950302644162 2634.8365721567375 556.2462567696725 2499.510035043007 556.2462567696725 2266.7989805670595 C 556.2462567696725 1610.4020388658805 1064.6693214399497 1076.6842943612614 1700.830519273655 1053.9190825103535 C 1716.0073271742601 1053.9190825103535 1732.4488690665826 1053.9190825103535 1747.6256769671877 1055.1838165020704 L 1595.8575979611348 903.4157374960178 C 1595.8575979611348 903.4157374960178 2206.724115960498 800.9722841669321 2990.8591908251046 1275.2475310608472 C 2990.8591908251046 1275.2475310608472 3002.241796750558 1299.2774769034722 2990.8591908251046 1370.1025804396302 C 2990.8591908251046 1370.1025804396302 3360.1615164064997 1529.4590633959856 3391.7798661994275 1839.318891366677 C 3423.398215992355 2149.1787193373684 3227.3644472762035 2326.2414781777634 3069.272698311565 2351.5361580121053 C 3069.272698311565 2351.5361580121053 3151.480407773177 2223.7980248486774 3025.007008601466 2155.502389295954 C 2998.4475947754067 2140.3255813953488 2966.829244982479 2134.001911436763 2935.210895189551 2135.26664542848 L 2935.210895189551 2135.26664542848 C 2693.646702771584 2135.26664542848 2665.8225549538074 2410.9786556228096 2665.8225549538074 2410.9786556228096 C 2663.293086970373 2424.8907295316976 2663.293086970373 2438.8028034405856 2663.293086970373 2452.714877349474 C 2663.293086970373 2452.714877349474 2622.8215992354258 2856.1650207072316 3341.1905065307433 2848.576616756929 C 3341.1905065307433 2848.576616756929 3705.43389614527 2436.273335457152 3801.5536795157695 2065.7062758840398 C 3836.966231283849 1929.1150047785918 3862.260911118191 1826.6715514495063 3878.7024530105136 1750.7875119464798 C 3919.1739407454606 1643.2851226505256 3958.380694488692 1531.98853137942 3996.3227142402047 1416.8977381331633 L 4001.381650207073 1402.9856642242753 Z " fill="url(#_lgradient_3)"/><path d=" M 2678.4698948709784 1397.9267282574067 C 2688.5877668047156 1392.8677922905383 2721.47085058936 1376.4262503982159 2759.4128703408733 1337.2194966549857 C 2835.2969098439 1347.3373685887225 2909.9162153552093 1371.3673144313477 2909.9162153552093 1371.3673144313477 C 2772.060210258044 1287.8948709780186 2583.6148454921954 1238.5702453010513 2374.9337368588726 1239.8349792927684 C 2374.9337368588726 1239.8349792927684 2454.6119783370505 1353.661038547308 2675.940426887544 1400.456196240841 C 2675.940426887544 1400.456196240841 2677.2051608792613 1399.191462249124 2678.4698948709784 1397.9267282574067 Z " fill="rgb(40,40,40)"/><path d=" M 2047.3676330041417 413.9636827014975 C 2181.429436126155 455.69990442816203 3155.2746097483277 779.4718063077414 3934.3507486460658 1423.221408091749 L 4021.6173940745457 1397.9267282574067 L 4015.29372411596 1392.8677922905383 C 3253.9238611022615 747.8534565148137 2291.4612934055426 412.69894870978027 2091.63332271424 348.19751513220785 L 2072.662312838483 341.8738451736223 L 2047.3676330041412 334.28544122331965 L 2003.101943294042 348.19751513220785 C 1803.273972602739 412.6989487097804 840.8114049060205 747.8534565148137 79.44154189232194 1392.8677922905383 L 70.58840395030217 1400.4561962408409 L 155.32558139534837 1428.2803440586172 C 934.4017202930872 780.7365402994586 1913.3058298821284 455.69990442816203 2047.3676330041417 413.9636827014975 Z " fill="rgb(40,40,40)"/><linearGradient id="_lgradient_4" x1="49.97037273016885%" y1="77.884722706662%" x2="49.970372730168855%" y2="-14.814370422043943%"><stop offset="3.9196540000000004%" stop-opacity="1" style="stop-color:rgb(44,244,225)"/><stop offset="100%" stop-opacity="1" style="stop-color:rgb(44,178,225)"/></linearGradient><linearGradient id="_lgradient_5" x1="-1.3884995221408083%" y1="50.004046041158%" x2="101.32927683975792%" y2="50.004046041158%"><stop offset="3.9196540000000004%" stop-opacity="1" style="stop-color:rgb(44,244,225)"/><stop offset="100%" stop-opacity="1" style="stop-color:rgb(44,178,225)"/></linearGradient><path d=" M 4015.2937241159607 1272.7180630774133 C 3253.9238611022624 627.7037273016888 2291.461293405543 292.54921949665527 2091.6333227142404 228.04778591908286 L 2072.662312838484 221.72411596049733 L 2047.3676330041417 214.13571201019465 L 2003.101943294043 228.04778591908286 C 1803.2739726027398 292.5492194966554 840.8114049060212 627.7037273016888 79.44154189232262 1272.7180630774133 L 63.00000000000023 1286.6301369863013 L 66.79420197515157 1308.1306148454923 C 68.05893596686872 1313.1895508123607 150.26664542848067 1802.641605606881 431.03759158967847 2355.330359987257 C 596.7177445046195 2680.3669958585538 797.8104491876397 2962.4026760114684 1027.9920356801533 3196.3784644791335 C 1310.0277158330682 3482.2083466072 1638.8585536795163 3693.418923223957 2004.36667728576 3824.9512583625356 L 2025.8671551449506 3832.5396623128386 L 2047.3676330041412 3840.1280662631416 L 2070.1328448550494 3831.274928321122 L 2091.63332271424 3823.686524370819 C 2457.141446320484 3692.1541892322402 2784.707550175215 3480.9436126154824 3068.007964319847 3195.113730487417 C 3298.1895508123603 2962.402676011469 3499.282255495381 2679.102261866837 3664.9624084103216 2354.0656259955404 C 3945.733354571519 1802.6416056068817 4029.2057980248483 1311.924816820644 4029.2057980248483 1306.8658808537757 L 4033 1285.3654029945849 L 4015.2937241159607 1272.7180630774133 Z  M 3595.4020388658814 2319.917808219178 C 3433.516087926091 2637.3660401401717 3237.4823192099398 2914.3427843262184 3012.3596686842943 3141.9949028352976 C 2732.853456514814 3424.0305829882127 2409.081554635234 3631.446957629818 2047.3676330041412 3759.185090793246 C 1685.6537113730487 3631.446957629818 1361.8818094934693 3425.2953169799302 1082.3755973239884 3143.259636827015 C 857.2529467983434 2915.607518317936 661.2191780821918 2639.8955081236063 499.3332271424019 2322.4472762026126 C 255.23956674100015 1844.377827333546 164.17871933736842 1415.6330041414465 145.20770946161184 1316.9837527875122 C 925.5485823510676 663.1162790697676 1912.0410958904113 336.814909206754 2047.3676330041417 293.81395348837236 C 2181.429436126155 336.814909206754 3169.1866836572162 663.1162790697676 3949.527556546671 1316.983752787512 C 3930.556546670915 1414.3682701497294 3838.2309652755657 1843.1130933418287 3595.4020388658814 2319.917808219178 Z " fill-rule="evenodd" fill="url(#_lgradient_4)" vector-effect="non-scaling-stroke" stroke-width="101.17871933736858" stroke="url(#_lgradient_5)" stroke-linejoin="miter" stroke-linecap="butt" stroke-miterlimit="10"/></svg>