<svg width="500" height="500" viewBox="0 0 500 500" fill="none" xmlns="http://www.w3.org/2000/svg">
<path d="M376.112 373.83L249.996 499.996L187.496 437.471C254.894 433.356 319.989 411.392 376.112 373.83Z" fill="#2B71FF"/>
<path d="M495.908 246.005L480.283 230.373L250 0L19.7173 230.373L0 250.098L7.06846 256.425C15.253 263.125 23.4375 269.452 31.9941 275.406C94.4929 319.186 168.703 343.163 244.992 344.224C321.282 345.286 396.13 323.385 459.822 281.361C468.75 275.406 477.679 268.707 486.235 262.008C494.792 255.309 495.537 254.192 500 250.098L495.908 246.005ZM310.64 303.691C241.939 261.5 162.83 239.329 82.2173 239.678C187.5 193.901 316.221 187.574 434.524 255.681C396.726 279.557 354.652 295.862 310.64 303.691Z" fill="#2B71FF"/>
</svg>
