<svg width="500" height="500" viewBox="0 0 500 500" fill="none" xmlns="http://www.w3.org/2000/svg">
<path d="M152.9 210.1L250 113L347.15 210.15L403.65 153.65L250 0L96.4 153.6L152.9 210.1ZM0 250L56.5 193.5L113 250L56.5 306.5L0 250ZM152.9 289.9L250 387L347.15 289.85L403.65 346.325L250 500L96.4 346.4L96.325 346.325L152.9 289.9ZM387 250L443.5 193.5L500 250L443.5 306.5L387 250ZM307.3 249.95H307.35V250L250 307.35L192.725 250.1L192.625 250L192.725 249.925L202.75 239.875L207.625 235L250 192.65L307.325 249.975L307.3 249.95Z" fill="#F3BA2F"/>
</svg>
