<svg width="500" height="500" viewBox="0 0 500 500" fill="none" xmlns="http://www.w3.org/2000/svg">
<path d="M93.0954 406.937L78.0071 339.638L208.84 208.839L158.512 158.511L0 316.989L33.4952 466.503L183.009 499.998L210.688 472.319L160.359 421.991L93.0954 406.937Z" fill="black"/>
<path d="M316.989 0.000238374L289.311 27.6791L339.639 78.0075L406.937 93.0957L421.991 160.36L291.192 291.193L341.521 341.521L499.998 183.009L466.503 33.4955L316.989 0.000238374Z" fill="black"/>
<path d="M78.0084 160.361L93.0966 93.0965L160.361 78.0082L291.194 208.841L341.522 158.513L183.01 0.000968836L33.4964 33.4962L0.0012207 183.01L27.6801 210.689L78.0084 160.361Z" fill="black"/>
<path d="M421.993 339.639L406.939 406.937L339.641 421.991L208.842 291.192L158.513 341.521L316.991 499.999L466.505 466.503L500 316.989L472.321 289.311L421.993 339.639Z" fill="black"/>
<path d="M291.192 291.193L499.998 183.009L406.937 93.0955L421.991 160.36L291.192 291.193Z" fill="black"/>
<path d="M291.192 208.841L183.008 0.000803993L93.095 93.0963L160.359 78.0081L291.192 208.841Z" fill="black"/>
<path d="M208.841 208.841L0.000488281 316.991L93.0958 406.938L78.0076 339.64L208.841 208.841Z" fill="black"/>
<path d="M208.84 291.192L316.99 499.999L406.937 406.937L339.639 421.991L208.84 291.192Z" fill="black"/>
<path d="M289.311 27.6785L339.639 78.0068L316.99 -0.000440586L289.311 27.6785Z" fill="black"/>
<path d="M27.6801 210.689L78.0084 160.361L0.0012207 183.01L27.6801 210.689Z" fill="black"/>
<path d="M183.01 500L210.689 472.321L160.36 421.993L183.01 500Z" fill="black"/>
<path d="M472.32 289.311L421.992 339.64L499.999 316.99L472.32 289.311Z" fill="black"/>
<path d="M291.192 291.193L341.521 341.521L499.998 183.009L291.192 291.193Z" fill="#282828"/>
<path d="M341.522 158.513L183.01 0.000803993L291.193 208.841L341.522 158.513Z" fill="#282828"/>
<path d="M158.512 158.512L0.000488281 316.99L208.841 208.84L158.512 158.512Z" fill="#282828"/>
<path d="M158.512 341.521L316.99 499.999L208.84 291.192L158.512 341.521Z" fill="#282828"/>
<path d="M499.999 183.01L466.504 33.4964L339.64 78.0084L406.938 93.0966L499.999 183.01Z" fill="#282828"/>
<path d="M78.0081 160.359L93.0963 93.0952L183.01 -0.000292116L33.4961 33.4949L78.0081 160.359Z" fill="#282828"/>
<path d="M0 316.991L33.4952 466.505L160.359 421.993L93.0954 406.939L0 316.991Z" fill="#282828"/>
<path d="M406.938 406.937L316.99 499.999L466.504 466.503L421.992 339.639L406.938 406.937Z" fill="#282828"/>
<path d="M316.989 -0.000440586L339.639 78.0068L466.503 33.4948L316.989 -0.000440586Z" fill="#444444"/>
<path d="M33.4957 33.4953L0.000488281 183.009L78.0076 160.36L33.4957 33.4953Z" fill="#444444"/>
<path d="M33.4955 466.505L183.009 500L160.36 421.993L33.4955 466.505Z" fill="#444444"/>
<path d="M421.993 339.64L466.505 466.505L500 316.991L421.993 339.64Z" fill="#444444"/>
</svg>
