<svg width="500" height="500" viewBox="0 0 500 500" fill="none" xmlns="http://www.w3.org/2000/svg">
<path d="M471.864 314.317C468.19 312.598 464.212 311.621 460.159 311.443C456.107 311.264 452.058 311.888 448.247 313.278C444.436 314.667 440.937 316.795 437.95 319.54C434.963 322.285 432.548 325.593 430.843 329.273C412.976 367.71 382.661 398.994 344.804 418.062C306.946 437.131 263.761 442.869 222.237 434.347C180.713 425.825 143.28 403.542 115.995 371.105C88.7105 338.667 73.1707 297.972 71.8906 255.607C70.6105 213.241 83.6651 171.682 108.942 137.657C134.218 103.631 170.238 79.1296 211.172 68.1169C252.106 57.1041 295.558 60.2245 334.498 76.9733C373.438 93.722 405.586 123.119 425.74 160.407C427.657 163.996 430.264 167.171 433.412 169.748C436.56 172.326 440.187 174.255 444.083 175.426C447.98 176.597 452.07 176.986 456.117 176.57C460.165 176.154 464.09 174.942 467.668 173.004C471.245 171.065 474.404 168.439 476.962 165.275C479.52 162.111 481.427 158.473 482.574 154.569C483.721 150.666 484.084 146.574 483.643 142.53C483.202 138.485 481.965 134.568 480.005 131.003C458.551 91.3689 426.782 58.2705 388.058 35.2096C349.335 12.1488 305.097 -0.0168361 260.026 1.74873e-05C122.148 1.74873e-05 10 112.137 10 250C10 387.863 122.148 500 260.026 500C307.654 499.883 354.267 486.221 394.421 460.607C434.575 434.994 466.612 398.487 486.793 355.349C490.244 347.927 490.61 339.439 487.811 331.747C485.013 324.055 479.278 317.787 471.864 314.317V314.317Z" fill="#3AB03E"/>
<path d="M246.695 167.495C237.192 169.276 228.501 174.028 221.872 181.065C215.244 188.103 211.022 197.063 209.814 206.655C208.886 214.143 209.865 221.744 212.661 228.753C215.457 235.761 219.978 241.95 225.805 246.744V333.348H286.207V246.657C295.094 239.335 300.821 228.872 302.198 217.44C305.745 186.057 278.357 161.71 246.695 167.495Z" fill="#3AB03E"/>
</svg>
