<svg width="500" height="500" viewBox="0 0 500 500" fill="none" xmlns="http://www.w3.org/2000/svg">
<path fill-rule="evenodd" clip-rule="evenodd" d="M59.9149 37H232.336C337.215 37 416.714 93.3576 446.291 175.365H500V224.931H457.6C458.43 232.764 458.854 240.744 458.854 248.851V250.069C458.854 259.196 458.319 268.169 457.27 276.957H500V326.523H445.268C414.913 407.39 336.03 463.21 232.336 463.21H59.9149V326.523H0V276.957H59.9149V224.931H0V175.365H59.9149V37ZM108.117 326.523V418.745H232.336C308.991 418.745 365.942 381.809 392.453 326.523H108.117ZM407.219 276.957H108.117V224.931H407.296C408.405 233.119 408.971 241.512 408.971 250.069V251.286C408.971 260.041 408.38 268.611 407.219 276.957ZM232.336 81.3912C309.344 81.3912 366.466 119.302 392.817 175.365H108.117V81.3912H232.336Z" fill="#F4B731"/>
</svg>
