<svg width="500" height="501" viewBox="0 0 500 501" fill="none" xmlns="http://www.w3.org/2000/svg">
<path d="M353.96 190.662L249.822 129.789L145.181 190.159L249.822 251.032L353.96 190.662Z" fill="#E72E9D"/>
<path d="M249.822 372.274L354.463 311.14V190.662L249.822 251.032V372.274Z" fill="#20B1F9"/>
<path d="M249.822 372.274V251.032L145.181 190.311V310.898L249.822 372.274Z" fill="#095198"/>
<path d="M465.114 374.983V125.97" stroke="black" stroke-width="0.932942" stroke-miterlimit="10"/>
<path d="M34.5593 375.072L35.0062 126.267" stroke="black" stroke-width="0.932942" stroke-miterlimit="10"/>
<path d="M249.822 500.56L465.142 374.79" stroke="black" stroke-width="0.932942" stroke-miterlimit="10"/>
<path d="M34.5032 126.77L249.822 1" stroke="black" stroke-width="0.932942" stroke-miterlimit="10"/>
<path d="M249.822 500.56L34 374.79" stroke="black" stroke-width="0.932942" stroke-miterlimit="10"/>
<path d="M249.822 251.032L464.638 126.267" stroke="black" stroke-width="0.932942" stroke-miterlimit="10"/>
<path d="M249.822 251.032L35.0061 126.267" stroke="black" stroke-width="0.932942" stroke-miterlimit="10"/>
<path d="M465.141 126.267L249.319 1" stroke="black" stroke-width="0.932942" stroke-miterlimit="10"/>
<path d="M354.482 310.898V190.396" stroke="black" stroke-width="0.932942" stroke-miterlimit="10"/>
<path d="M145.181 311.513L145.181 190.347" stroke="black" stroke-width="0.932942" stroke-miterlimit="10"/>
<path d="M249.822 372.274L354.966 310.898" stroke="black" stroke-width="0.932942" stroke-miterlimit="10"/>
<path d="M145.181 190.662L250.325 129.286" stroke="black" stroke-width="0.932942" stroke-miterlimit="10"/>
<path d="M249.822 372.274L144.678 310.898" stroke="black" stroke-width="0.932942" stroke-miterlimit="10"/>
<path d="M354.463 190.662L249.822 129.286" stroke="black" stroke-width="0.932942" stroke-miterlimit="10"/>
<path d="M258.363 43.5036C258.363 48.2406 254.522 52.0807 249.783 52.0807C245.042 52.0807 241.201 48.2406 241.201 43.5036C241.201 38.7664 245.042 34.9263 249.783 34.9263C254.522 34.9263 258.363 38.7664 258.363 43.5036Z" fill="black"/>
<path d="M258.363 86.5309C258.363 91.2679 254.522 95.108 249.783 95.108C245.042 95.108 241.201 91.2679 241.201 86.5309C241.201 81.7937 245.042 77.9536 249.783 77.9536C254.522 77.9536 258.363 81.7937 258.363 86.5309Z" fill="black"/>
<path d="M81.7945 353.107C81.7945 357.845 77.9526 361.684 73.2131 361.684C68.4738 361.684 64.6318 357.845 64.6318 353.107C64.6318 348.371 68.4738 344.531 73.2131 344.531C77.9526 344.531 81.7945 348.371 81.7945 353.107Z" fill="black"/>
<path d="M118.043 332.797C118.043 337.534 114.201 341.373 109.461 341.373C104.722 341.373 100.88 337.534 100.88 332.797C100.88 328.06 104.722 324.219 109.461 324.219C114.201 324.219 118.043 328.06 118.043 332.797Z" fill="black"/>
<path d="M435.762 352.835C435.762 357.574 431.92 361.413 427.181 361.413C422.442 361.413 418.6 357.574 418.6 352.835C418.6 348.098 422.442 344.259 427.181 344.259C431.92 344.259 435.762 348.098 435.762 352.835Z" fill="black"/>
<path d="M399.658 332.525C399.658 337.262 395.816 341.102 391.077 341.102C386.337 341.102 382.496 337.262 382.496 332.525C382.496 327.788 386.337 323.948 391.077 323.948C395.816 323.948 399.658 327.788 399.658 332.525Z" fill="black"/>
<path d="M249.822 251.032V501" stroke="black" stroke-width="0.932942" stroke-miterlimit="10"/>
</svg>
