<svg width="500" height="500" viewBox="0 0 500 500" fill="none" xmlns="http://www.w3.org/2000/svg">
<path d="M250 500C388.071 500 500 388.071 500 250C500 111.929 388.071 0 250 0C111.929 0 0 111.929 0 250C0 388.071 111.929 500 250 500Z" fill="#7866D5"/>
<path d="M351.348 128.286C359.884 129.309 368.527 129.873 376.958 131.496C393.679 134.741 399.217 143.065 396.36 159.961C395.583 166.31 390.61 171.354 384.26 172.165C380.274 172.8 376.252 173.082 372.231 173.011C317.342 173.188 262.488 173.329 207.563 173.435C199.309 173.505 191.089 174.246 182.976 175.622C155.813 180.066 145.478 191.318 143.326 218.725C142.303 231.564 142.303 231.564 155.179 231.564H373.924C376.041 231.564 378.157 231.564 380.274 231.564C383.766 231.564 387.153 232.516 390.151 234.28C400.099 240.629 397.629 250.717 397.065 259.852C396.606 267.26 392.126 271.316 384.507 272.797C381.297 273.326 378.051 273.538 374.806 273.468C299.986 273.468 225.166 273.468 150.381 273.468C142.091 273.468 142.232 273.468 142.832 281.686C143.114 289.164 144.067 296.606 145.654 303.943C149.041 317.452 157.401 325.918 170.876 329.657C185.798 333.854 201.143 334.771 216.453 334.877C269.966 335.23 323.48 335.089 377.028 335.089C383.801 335.089 390.186 335.935 394.208 342.249C400.769 352.831 397.524 366.728 386.941 373.324C385.495 374.206 383.942 374.946 382.355 375.511C370.714 379.25 358.614 380.132 346.55 380.343C296.282 381.26 246.049 381.26 195.781 380.343C180.26 379.955 164.774 378.156 149.605 374.947C113.835 367.539 95.9503 349.374 89.8476 313.361C88.4366 305.072 87.7311 296.677 86.7081 288.317V222.675C87.3783 216.22 88.0133 209.765 88.7541 203.381C93.4105 162.712 111.683 142.571 151.686 133.683C165.938 130.508 180.436 129.803 194.829 128.286H351.348Z" fill="white"/>
<path d="M271.095 387.292C245.873 387.292 220.651 387.08 195.605 386.622C179.695 386.234 163.751 384.4 148.229 381.119C109.955 373.183 89.9888 352.619 83.5333 314.384C82.5456 308.493 81.8753 302.497 81.2404 296.748C80.9581 294.173 80.6759 291.633 80.3585 289.058L80.3232 288.282L80.3585 222.04L80.9934 215.832C81.452 211.423 81.9106 207.05 82.4045 202.711C87.4489 159.502 107.768 136.998 150.31 127.545C161.458 125.076 172.711 124.053 183.611 123.066C187.138 122.748 190.666 122.431 194.194 122.043L194.864 122.008H351.771L352.159 122.043C354.769 122.36 357.415 122.642 360.061 122.889C365.987 123.489 372.125 124.124 378.228 125.323C398.37 129.238 406.131 140.596 402.674 161.054C401.616 170.013 394.384 177.315 385.142 178.514C381.015 179.184 376.57 179.502 372.196 179.396C317.447 179.572 262.558 179.713 207.669 179.819C199.838 179.89 191.901 180.595 184.14 181.936C159.729 185.957 151.686 194.669 149.746 219.289C149.57 221.476 149.393 223.663 149.358 225.18C150.875 225.285 153.097 225.285 155.284 225.285H380.344C384.965 225.285 389.481 226.52 393.467 228.883C405.531 236.608 404.508 248.283 403.768 256.819C403.662 257.983 403.556 259.112 403.485 260.276C402.886 270.293 396.607 276.995 385.812 279.076C382.038 279.676 378.369 279.923 374.735 279.852H150.487C150.064 279.852 149.605 279.852 149.182 279.852C149.217 280.169 149.217 280.522 149.252 280.84L149.287 281.263C149.57 288.6 150.487 295.725 151.968 302.638C154.755 313.714 161.352 320.415 172.675 323.59C187.809 327.823 203.365 328.493 216.594 328.563C258.29 328.846 300.727 328.81 341.753 328.775H377.134C382.355 328.775 393.22 328.775 399.64 338.863C403.768 345.494 405.037 353.254 403.274 360.767C401.51 368.28 396.924 374.664 390.363 378.721C388.528 379.85 386.553 380.802 384.472 381.507C371.42 385.705 358.085 386.481 346.726 386.692C321.539 387.08 296.317 387.292 271.095 387.292ZM92.9872 287.894C93.3047 290.363 93.5516 292.868 93.8338 295.337C94.4688 300.945 95.1038 306.73 96.0209 312.267C101.63 345.459 117.504 361.79 150.804 368.703C165.62 371.843 180.754 373.606 195.852 373.959C245.767 374.841 296.423 374.841 346.338 373.959C356.745 373.783 368.95 373.077 380.309 369.444C381.367 369.091 382.461 368.562 383.484 367.927C387.153 365.635 389.728 362.072 390.715 357.839C391.703 353.607 390.998 349.268 388.705 345.6C386.729 342.496 383.731 341.438 376.923 341.438H341.576C300.55 341.473 258.078 341.473 216.347 341.226C202.272 341.12 185.657 340.415 169.113 335.759C153.379 331.385 143.396 321.191 139.446 305.495C137.752 297.629 136.765 289.764 136.447 281.968L136.412 281.757C136.024 276.783 135.777 273.185 138.564 270.152C141.386 267.119 145.125 267.119 150.31 267.119H374.735C377.734 267.189 380.627 267.013 383.449 266.554C389.163 265.461 390.468 263.027 390.68 259.5C390.751 258.23 390.857 256.995 390.962 255.726C391.738 246.766 391.562 242.816 386.659 239.677C384.824 238.583 382.531 237.948 380.203 237.948H155.143C147.383 237.948 142.691 237.948 139.304 234.315C135.953 230.682 136.306 225.991 136.941 218.266C139.34 188.038 151.968 174.352 181.918 169.449C190.313 168.003 198.921 167.227 207.493 167.156C262.417 167.051 317.306 166.909 372.196 166.733C375.97 166.804 379.639 166.557 383.237 165.957C386.906 165.463 389.622 162.712 390.045 159.255C392.409 145.323 389.057 140.385 375.758 137.774C370.22 136.716 364.647 136.117 358.72 135.517C356.145 135.235 353.57 134.988 350.995 134.67H195.217C191.76 135.023 188.267 135.341 184.81 135.658C173.839 136.646 163.468 137.598 153.133 139.891C115.775 148.215 99.478 166.239 95.0685 204.157C94.5746 208.46 94.116 212.764 93.6927 217.102L93.093 223.028V287.894H92.9872Z" fill="white"/>
</svg>
