<svg width="500" height="500" viewBox="0 0 500 500" fill="none" xmlns="http://www.w3.org/2000/svg">
<path d="M147.003 284.567C161.393 284.582 175.379 279.806 186.753 270.992L95.5779 179.917C88.1471 189.531 83.5599 201.035 82.3369 213.124C81.114 225.214 83.3042 237.404 88.659 248.311C94.0138 259.219 102.319 268.407 112.632 274.833C122.944 281.259 134.852 284.666 147.003 284.667V284.567Z" fill="#051B3B"/>
<path d="M418.026 219.542C418.026 205.188 413.24 191.245 404.426 179.917L313.25 270.992C322.866 278.431 334.375 283.025 346.471 284.251C358.566 285.477 370.763 283.286 381.676 277.927C392.589 272.568 401.78 264.256 408.205 253.936C414.631 243.615 418.033 231.699 418.026 219.542V219.542Z" fill="#051B3B"/>
<path d="M463.85 120.394L423.525 160.719C438.25 178.317 445.852 200.79 444.835 223.714C443.818 246.637 434.255 268.349 418.03 284.574C401.805 300.799 380.093 310.362 357.17 311.379C334.247 312.396 311.773 304.793 294.175 290.069L250 334.244L205.825 290.069C188.227 304.793 165.753 312.396 142.83 311.379C119.907 310.362 98.1948 300.799 81.9697 284.574C65.7445 268.349 56.182 246.637 55.165 223.714C54.148 200.79 61.7504 178.317 76.475 160.719L55.75 139.919L36.15 120.319C13.1902 158.236 0.724606 201.575 0.0306467 245.897C-0.663313 290.218 10.4393 333.927 32.2008 372.544C53.9623 411.161 85.6 443.298 123.872 465.662C162.144 488.025 205.673 499.811 250 499.811C294.327 499.811 337.856 488.025 376.128 465.662C414.4 443.298 446.038 411.161 467.799 372.544C489.561 333.927 500.663 290.218 499.969 245.897C499.275 201.575 486.81 158.236 463.85 120.319V120.394Z" fill="#051B3B"/>
<path d="M430.874 77.4189C407.528 52.9517 379.462 33.4753 348.372 20.1682C317.283 6.86114 283.816 0 249.999 0C216.181 0 182.715 6.86114 151.625 20.1682C120.535 33.4753 92.4688 52.9517 69.1235 77.4189C62.9324 83.9298 57.0909 90.7644 51.6235 97.8939L249.999 296.244L448.424 97.8439C442.939 90.7302 437.08 83.9123 430.874 77.4189V77.4189ZM249.999 32.6189C278.565 32.476 306.873 38.0342 333.265 48.9678C359.657 59.9015 383.602 75.9909 403.699 96.2939L249.999 249.919L96.2985 96.2939C116.395 75.9909 140.34 59.9015 166.732 48.9678C193.124 38.0342 221.432 32.476 249.999 32.6189V32.6189Z" fill="#051B3B"/>
</svg>
