<svg width="500" height="500" viewBox="0 0 500 500" fill="none" xmlns="http://www.w3.org/2000/svg">
<circle cx="250" cy="250" r="250" fill="#181EA9"/>
<path d="M348.037 50L306.414 91.6212C292.288 81.5531 275.031 75.6064 256.398 75.6064C208.76 75.6036 170 114.362 170 162.004C170 204.737 201.191 240.302 241.998 247.179V278.425C201.191 285.304 170 320.869 170 363.602C170 411.24 208.759 450 256.398 450C304.039 450 342.796 411.241 342.796 363.602C342.796 320.869 311.605 285.304 270.797 278.425V247.179C311.604 240.302 342.796 204.738 342.796 162.004C342.796 143.371 336.849 126.113 326.781 111.988L368.402 70.3643L348.037 50ZM313.997 363.602C313.997 395.36 288.159 421.201 256.398 421.201C224.64 421.201 198.798 395.359 198.798 363.602C198.798 331.842 224.64 306.003 256.398 306.003C288.159 306.004 313.997 331.842 313.997 363.602ZM256.398 219.603C224.64 219.603 198.798 193.765 198.798 162.005C198.798 130.244 224.64 104.405 256.398 104.405C288.159 104.405 313.997 130.243 313.997 162.005C313.997 193.765 288.159 219.603 256.398 219.603Z" fill="white"/>
</svg>
