<svg width="500" height="500" viewBox="0 0 500 500" fill="none" xmlns="http://www.w3.org/2000/svg">
<path d="M318.451 166.198C318.666 192.048 308.262 212.536 293.676 231.521C281.127 247.932 266.112 261.984 251.418 276.357C208.839 318.404 179.773 368.603 160.575 424.916C156.714 436.071 153.389 447.334 150.922 458.918C149.742 464.389 148.777 464.711 144.594 460.956C73.1636 398.315 68.7662 291.588 134.727 223.155C143.2 214.359 152.96 207.065 161.433 198.377C197.363 161.907 220.958 118.895 229.431 68.0525C232.863 47.1362 234.258 26.22 232.327 5.08919C232.112 3.37298 231.254 1.22773 233.4 0.262362C235.437 -0.703004 236.724 1.22772 238.011 2.30035C256.781 18.8188 272.225 38.2334 285.31 59.4715C303.865 89.5051 313.839 122.328 318.129 157.188C318.451 160.513 318.344 163.945 318.451 166.198Z" fill="#454E72"/>
<path d="M252.49 500C234.686 499.678 217.204 496.46 199.829 491.955C197.362 491.312 195.325 490.668 196.075 487.45C196.612 484.876 196.397 482.302 200.366 481.872C209.697 480.907 215.703 475.544 218.062 466.534C219.135 462.565 220.1 458.489 220.422 454.413C222.46 426.632 235.544 403.785 252.061 382.44C268.364 361.524 288.206 343.825 306.117 324.411C335.826 292.125 359.958 256.406 374.544 214.681C375.081 213.072 375.081 210.712 377.333 210.497C379.8 210.283 380.336 212.75 381.194 214.359C393.528 236.562 401.679 260.267 406.291 285.26C410.26 306.605 412.619 328.058 410.689 349.725C406.506 397.993 386.128 437.68 347.088 466.963C319.202 487.986 287.884 499.678 252.49 500Z" fill="#24A9E2"/>
</svg>
