<svg width="500" height="500" viewBox="0 0 500 500" fill="none" xmlns="http://www.w3.org/2000/svg">
<path d="M224.198 250.064L410.914 356.911C417.474 360.634 425.617 355.895 425.617 348.449V151.566C425.617 144.007 417.474 139.381 410.914 143.104L224.198 250.064Z" fill="#31CB9E"/>
<path d="M406.767 95.7842L279.23 2.00783C273.306 -2.35647 264.826 0.776875 263.316 7.71499L216.739 216.418L405.606 111.899C411.878 108.43 412.459 100.037 406.767 95.7842Z" fill="#31CB9E"/>
<path d="M279.11 498.041L406.756 404.243C412.447 399.99 411.866 391.595 405.71 388.125L216.739 283.582L263.314 492.333C264.707 499.272 273.302 502.295 279.11 498.041Z" fill="#31CB9E"/>
<path d="M175.688 246.325L223.964 19.3427C225.864 10.4215 215.806 3.98466 208.654 9.51806L85.0576 104.828C78.6878 109.684 75 117.363 75 125.381V367.156C75 375.174 78.6878 382.853 85.0576 387.709L208.654 483.019C215.806 488.552 225.864 482.116 223.964 473.195L175.688 246.325Z" fill="#31CB9E"/>
</svg>
