<svg width="500" height="500" viewBox="0 0 500 500" fill="none" xmlns="http://www.w3.org/2000/svg">
<path d="M379.421 471.749L37.7008 232.129C26.0563 223.964 16.5508 213.115 9.98846 200.501C3.42611 187.887 0 173.879 0 159.661C0 145.444 3.42611 131.435 9.98846 118.821C16.5508 106.207 26.0563 95.3587 37.7008 87.1934L120.511 29L462.231 268.62C473.875 276.785 483.381 287.634 489.943 300.248C496.505 312.862 499.931 326.87 499.931 341.088C499.931 355.305 496.505 369.314 489.943 381.928C483.381 394.542 473.875 405.39 462.231 413.556L379.421 471.749ZM120.442 67.8184L55.9204 112.935C48.417 118.18 42.2902 125.157 38.0599 133.273C33.8297 141.39 31.6209 150.407 31.6209 159.559C31.6209 168.71 33.8297 177.727 38.0599 185.844C42.2902 193.96 48.417 200.937 55.9204 206.182L379.489 432.931L444.011 387.814C451.514 382.569 457.641 375.592 461.872 367.476C466.102 359.359 468.31 350.342 468.31 341.19C468.31 332.039 466.102 323.022 461.872 314.905C457.641 306.789 451.514 299.812 444.011 294.567L120.442 67.8184Z" fill="#4BC0C8"/>
<path d="M120.168 432.93L55.7148 387.744C48.2114 382.5 42.0847 375.523 37.8544 367.406C33.6242 359.29 31.4154 350.273 31.4154 341.121C31.4154 331.969 33.6242 322.953 37.8544 314.836C42.0847 306.72 48.2114 299.743 55.7148 294.498L222.431 178.111L195.033 158.805L37.7008 268.619C26.0563 276.784 16.5508 287.633 9.98845 300.247C3.42611 312.861 0 326.869 0 341.087C0 355.305 3.42611 369.313 9.98845 381.927C16.5508 394.541 26.0563 405.39 37.7008 413.555L120.237 471.474L222.362 400.068L194.965 380.761L120.168 432.93Z" fill="#02819B"/>
<path d="M462.368 87.3302L379.763 29.4106L277.569 100.886L304.967 120.192L379.626 67.9552L444.08 113.141C451.583 118.385 457.71 125.362 461.94 133.479C466.17 141.595 468.379 150.612 468.379 159.764C468.379 168.916 466.17 177.933 461.94 186.049C457.71 194.166 451.583 201.142 444.08 206.387L277.364 322.774L304.762 342.08L462.299 232.061C473.944 223.895 483.449 213.047 490.012 200.433C496.574 187.819 500 173.81 500 159.593C500 145.375 496.574 131.367 490.012 118.753C483.449 106.139 473.944 95.2901 462.299 87.1248L462.368 87.3302Z" fill="#02819B"/>
<path d="M187.21 163.826L57.2329 254.727L75.3351 280.587L205.312 189.686L187.21 163.826Z" fill="#02819B"/>
<path d="M427.435 218.094L364.146 262.389L382.229 288.268L447.915 242.33C440.929 234.388 434.216 226.241 427.435 218.094Z" fill="#02819B"/>
</svg>
