<?xml version="1.0" standalone="no"?><!-- Generator: Gravit.io --><svg xmlns="http://www.w3.org/2000/svg" xmlns:xlink="http://www.w3.org/1999/xlink" style="isolation:isolate" viewBox="0 0 4096 4096" width="4096" height="4096"><path d=" M 4003.84 2250.751999999989 C 4009.9840000000004 2183.167999999989 4014.0800000000004 2117.6319999999887 4014.0800000000004 2047.9999999999889 C 4014.0800000000004 962.5599999999889 3133.44 81.9199999999888 2048 81.9199999999888 C 962.5600000000001 81.9199999999888 81.92 962.5599999999889 81.92 2047.9999999999889 C 81.92 2056.191999999989 3973.12 2148.351999999989 4003.84 2250.751999999989 Z " fill="rgb(215,209,199)"/><path d=" M 73.72800000000001 2052.0959999999886 C 73.72800000000001 3137.535999999989 954.368 4018.175999999989 2039.8080000000002 4018.175999999989 C 3125.2480000000005 4018.175999999989 3894.19008 3350.527999999989 4005.8880000000004 2297.855999999989 C 4006.74816 2289.704959999989 73.72800000000001 1984.5119999999888 73.72800000000001 2052.0959999999886 Z " fill="rgb(191,181,175)"/><path d=" M 1286.144 593.9199999999888 C 1503.31392 593.9199999999888 1679.3600000000001 769.9660799999889 1679.3600000000001 987.1359999999888 C 1679.3600000000001 1204.3059199999889 1503.31392 1380.351999999989 1286.144 1380.351999999989 C 1068.97408 1380.351999999989 892.9280000000001 1204.3059199999889 892.9280000000001 987.1359999999888 C 892.9280000000001 769.9660799999889 1068.97408 593.9199999999888 1286.144 593.9199999999888 Z " fill="rgb(244,126,51)"/><path d=" M 1286.144 675.8399999999889 C 1114.112 675.8399999999889 974.848 815.1039999999889 974.848 987.1359999999888 C 974.848 1159.1679999999888 1114.112 1298.4319999999889 1286.144 1298.4319999999889 C 1458.1760000000002 1298.4319999999889 1597.4400000000003 1159.1679999999888 1597.4400000000003 987.1359999999888 C 1597.4400000000003 815.1039999999889 1456.1280000000002 675.8399999999889 1286.144 675.8399999999889 Z  M 1286.144 1462.2719999999888 C 1024 1462.2719999999888 811.008 1249.2799999999888 811.008 987.1359999999888 C 811.008 724.9919999999889 1024 511.99999999998886 1286.144 511.99999999998886 C 1548.288 511.99999999998886 1761.28 724.9919999999889 1761.28 987.1359999999888 C 1761.28 1249.2799999999888 1546.24 1462.2719999999888 1286.144 1462.2719999999888 Z " fill-rule="evenodd" fill="rgb(53,49,46)"/><path d=" M 2564.096 575.4879999999889 C 2904.5555200000003 575.4879999999889 3180.5440000000003 851.4764799999889 3180.5440000000003 1191.9359999999888 C 3180.5440000000003 1532.395519999989 2904.5555200000003 1808.3839999999889 2564.096 1808.3839999999889 C 2223.63648 1808.3839999999889 1947.6480000000001 1532.395519999989 1947.6480000000001 1191.9359999999888 C 1947.6480000000001 851.4764799999889 2223.63648 575.4879999999889 2564.096 575.4879999999889 Z " fill="rgb(244,126,51)"/><path d=" M 1460.2240000000002 2510.847999999989 L 1959.9360000000001 1880.0639999999887 L 2066.4320000000002 1941.503999999989 L 2271.232 2017.2799999999888 L 2416.6400000000003 1941.503999999989 L 2881.536 1445.887999999989 L 3043.3280000000004 1662.9759999999887 L 3121.1520000000005 1599.487999999989 L 3223.552 1599.487999999989 L 3481.6000000000004 1959.935999999989 L 3665.92 1929.215999999989 L 3997.6960000000004 2306.047999999989" fill="rgb(191,181,175)"/><path d=" M 1787.9040000000002 2197.503999999989 L 1517.568 2047.9999999999889 L 1124.352 2150.399999999989 L 944.1280000000002 1554.431999999989 L 620.5440000000001 1554.431999999989 L 309.24800000000005 2101.2479999999887 L 81.92 2109.4399999999887" fill="rgb(191,181,175)"/><path d=" M 892.9280000000001 2312.191999999989 C 892.9280000000001 2312.191999999989 745.4720000000001 2742.271999999989 745.4720000000001 2750.463999999989 C 745.4720000000001 2791.423999999989 811.008 2824.191999999989 892.9280000000001 2824.191999999989 C 974.848 2824.191999999989 1040.384 2791.423999999989 1040.384 2750.463999999989 C 1038.336 2744.3199999999892 892.9280000000001 2312.191999999989 892.9280000000001 2312.191999999989 Z " fill="rgb(244,126,51)"/><path d=" M 552.96 2146.303999999989 C 552.96 2146.303999999989 407.5520000000001 2574.335999999989 407.5520000000001 2582.527999999989 C 407.5520000000001 2623.487999999989 473.088 2656.255999999989 552.96 2656.255999999989 C 632.8320000000001 2656.255999999989 698.368 2623.487999999989 698.368 2582.527999999989 C 698.368 2574.335999999989 552.96 2146.303999999989 552.96 2146.303999999989 Z " fill="rgb(244,126,51)"/><path d=" M 3221.5040000000004 2191.3599999999888 C 3221.5040000000004 2357.2479999999887 2433.0240000000003 2357.2479999999887 2433.0240000000003 2191.3599999999888 C 2433.0240000000003 2025.4719999999888 2609.1520000000005 1890.303999999989 2826.2400000000002 1890.303999999989 C 3043.3280000000004 1890.303999999989 3221.5040000000004 2023.4239999999888 3221.5040000000004 2191.3599999999888 Z " fill="rgb(216,167,128)"/><path d=" M 3614.7200000000003 2600.959999999989 C 3614.7200000000003 2766.8479999999886 2826.2400000000002 2766.8479999999886 2826.2400000000002 2600.959999999989 C 2826.2400000000002 2435.071999999989 3002.368 2299.903999999989 3219.456 2299.903999999989 C 3438.5920000000006 2297.855999999989 3614.7200000000003 2433.023999999989 3614.7200000000003 2600.959999999989 Z " fill="rgb(216,167,128)"/><path d=" M 2826.2400000000002 3088.3839999999886 C 2826.2400000000002 3254.271999999989 2037.7600000000002 3254.271999999989 2037.7600000000002 3088.3839999999886 C 2037.7600000000002 2922.4959999999887 2213.8880000000004 2787.327999999989 2430.976 2787.327999999989 C 2648.0640000000003 2787.327999999989 2826.2400000000002 2922.4959999999887 2826.2400000000002 3088.3839999999886 Z " fill="rgb(216,167,128)"/><path d=" M 2070.5280000000002 3934.2079999999887 C 1257.4720000000002 3934.2079999999887 561.152 3424.255999999989 284.672 2707.4559999999888 C 339.968 2707.4559999999888 397.312 2709.503999999989 456.704 2709.503999999989 C 485.37600000000003 2717.695999999989 518.144 2721.791999999989 552.96 2721.791999999989 C 581.6320000000001 2721.791999999989 606.208 2719.743999999989 630.784 2713.599999999989 C 643.072 2713.599999999989 657.408 2713.599999999989 669.6960000000001 2715.6479999999888 C 665.6 2727.935999999989 665.6 2732.031999999989 665.6 2736.127999999989 C 665.6 2828.2879999999886 763.9040000000001 2893.8239999999887 897.024 2893.8239999999887 C 1028.096 2893.8239999999887 1101.824 2811.903999999989 1107.968 2723.839999999989 C 1128.448 2725.887999999989 1171.4560000000001 2746.367999999989 1191.9360000000001 2748.4159999999893 C 1744.8960000000002 2807.807999999989 1781.7600000000002 2908.159999999989 1781.7600000000002 2912.255999999989 C 1783.8080000000002 2920.447999999989 1769.472 2963.4559999999888 1658.8799999999999 3039.231999999989 C 1421.3120000000001 3203.071999999989 1339.3920000000003 3299.327999999989 1361.92 3401.727999999989 C 1388.544 3524.6079999999893 1548.288 3555.327999999989 1789.9520000000002 3600.383999999989 C 1857.536 3612.6719999999887 1935.3600000000001 3629.055999999989 2015.232 3645.439999999989 C 2103.2960000000003 3665.919999999989 2195.456 3684.351999999989 2283.52 3700.735999999989 C 2447.36 3733.5039999999894 2613.2480000000005 3766.271999999989 2744.3200000000006 3807.231999999989 C 2537.472 3891.199999999989 2308.096 3934.2079999999887 2070.5280000000002 3934.2079999999887 Z " fill="rgb(215,209,199)"/><path d=" M 3696.6400000000003 1841.152 L 3520.5120000000006 1871.872 L 3266.56 1519.6160000000002 L 3184.6400000000003 1519.6160000000002 C 3235.84 1421.3120000000001 3264.512 1310.72 3264.512 1193.984 C 3264.512 808.96 2951.168 495.616 2566.1440000000002 495.616 C 2181.1200000000003 495.616 1865.728 806.912 1865.728 1191.9360000000001 C 1865.728 1511.424 2082.8160000000003 1781.7600000000002 2375.6800000000003 1865.728 L 2365.44 1875.968 L 2265.088 1927.1680000000001 L 2101.248 1867.776 L 1939.4560000000001 1773.568 L 1712.1280000000002 2060.288 L 1529.8560000000002 1959.9360000000001 L 1179.6480000000001 2050.0480000000002 L 1003.5200000000001 1472.512 L 573.44 1472.512 L 260.096 2021.376 L 163.84 2023.424 C 176.12800000000001 995.328 1017.8560000000001 163.84 2048 163.84 C 3086.3360000000002 163.84 3932.1600000000003 1009.664 3932.1600000000003 2048 L 3932.1600000000003 2107.3920000000003 L 3696.6400000000003 1841.152 Z  M 2744.3200000000006 3078.1440000000002 C 2715.648 3098.6240000000003 2609.1520000000005 3131.392 2433.0240000000003 3131.392 C 2256.896 3131.392 2150.4 3098.6240000000003 2121.728 3078.1440000000002 C 2129.92 2963.456 2269.184 2869.2480000000005 2433.0240000000003 2869.2480000000005 C 2596.8640000000005 2869.2480000000005 2736.1279999999997 2963.456 2744.3200000000006 3078.1440000000002 L 2744.3200000000006 3078.1440000000002 Z  M 3221.5040000000004 2379.7760000000003 C 3385.3440000000005 2379.7760000000003 3524.608 2473.9840000000004 3532.8 2588.672 C 3504.128 2609.1520000000005 3395.584 2641.92 3221.5040000000004 2641.92 C 3047.4240000000004 2641.92 2938.8800000000006 2609.1520000000005 2910.208 2588.672 C 2918.4 2473.9840000000004 3057.664 2379.7760000000003 3221.5040000000004 2379.7760000000003 L 3221.5040000000004 2379.7760000000003 Z  M 3137.536 2179.072 C 3108.8640000000005 2199.552 3000.3200000000006 2232.32 2826.2400000000002 2232.32 C 2652.1600000000003 2232.32 2543.6160000000004 2199.552 2514.9440000000004 2179.072 C 2523.136 2064.384 2662.4 1970.1760000000002 2826.2400000000002 1970.1760000000002 C 2990.0800000000004 1970.1760000000002 3129.3440000000005 2064.384 3137.536 2179.072 L 3137.536 2179.072 Z  M 3012.608 1484.8000000000002 L 2889.728 1318.912 L 2508.8 1726.464 C 2240.512 1697.792 2031.6160000000002 1470.464 2031.6160000000002 1193.984 C 2031.6160000000002 899.072 2271.232 659.456 2566.1440000000002 659.456 C 2861.0560000000005 659.456 3100.672 899.072 3100.672 1193.984 C 3100.672 1300.4800000000002 3067.904 1400.8319999999999 3012.608 1484.8000000000002 L 3012.608 1484.8000000000002 Z  M 2924.5440000000003 3715.072 C 2770.944 3639.2960000000003 2537.472 3594.2400000000002 2291.7120000000004 3545.088 C 2205.696 3528.704 2115.5840000000003 3510.2720000000004 2029.568 3491.84 C 1949.696 3473.408 1871.872 3459.072 1802.24 3446.7840000000006 C 1691.648 3426.304 1558.5280000000002 3399.68 1515.52 3375.1040000000003 C 1529.8560000000002 3352.576 1574.912 3299.3280000000004 1734.656 3190.7840000000006 C 1792 3151.8720000000003 1966.0800000000002 3033.088 1918.9759999999999 2881.536 C 1875.968 2740.2239999999997 1652.736 2654.208 1198.0800000000002 2605.0560000000005 C 1157.1200000000001 2600.9600000000005 1114.112 2596.8640000000005 1069.056 2592.768 C 1046.528 2525.184 1013.76 2428.928 966.6560000000001 2289.664 L 888.8320000000001 2062.336 L 811.008 2289.664 C 784.384 2365.44 763.9040000000001 2426.88 745.4720000000001 2480.128 C 724.9920000000001 2414.592 688.128 2308.096 624.64 2123.7760000000003 L 552.96 1892.352 L 475.136 2119.6800000000003 C 368.64 2430.976 337.92 2523.136 329.728 2557.9519999999998 L 235.52000000000004 2557.9519999999998 C 202.752 2439.168 180.224 2314.2400000000002 169.984 2187.264 L 358.40000000000003 2181.1200000000003 L 669.6960000000001 1636.352 L 884.736 1636.352 L 1071.104 2248.704 L 1509.376 2136.064 L 1609.728 2191.36 L 1396.736 2459.648 L 1525.7600000000002 2562.0480000000002 L 1980.4160000000002 1986.56 L 2033.6640000000002 2017.28 L 2279.424 2107.3920000000003 L 2385.92 2052.096 C 2365.44 2095.104 2353.152 2142.208 2353.152 2191.36 C 2353.152 2240.512 2383.8720000000003 2344.96 2617.344 2383.8720000000003 C 2691.072 2396.1600000000003 2746.368 2459.648 2746.368 2535.4240000000004 L 2746.368 2801.6639999999998 C 2713.6000000000004 2779.136 2676.736 2758.656 2635.7760000000003 2744.3200000000006 L 2637.824 2744.3200000000006 C 2547.7120000000004 2715.648 2463.744 2672.6400000000003 2437.1200000000003 2584.576 C 2416.6400000000003 2656.2560000000003 2359.2960000000003 2697.216 2285.568 2725.8880000000004 C 2095.104 2777.088 1957.8880000000001 2920.4480000000003 1957.8880000000001 3090.4320000000002 C 1957.8880000000001 3151.8720000000003 2004.9920000000002 3297.28 2433.0240000000003 3297.28 C 2863.1040000000003 3297.28 2908.1600000000003 3151.8720000000003 2908.1600000000003 3090.4320000000002 L 2908.1600000000003 2768.896 C 2936.832 2779.136 2969.6000000000004 2787.3280000000004 3008.512 2793.472 C 3082.2400000000002 2805.7599999999998 3137.536 2869.2480000000005 3137.536 2945.024 L 3137.536 3129.3440000000005 C 3137.536 3172.3520000000003 3168.2560000000003 3211.264 3211.264 3215.36 C 3260.4160000000006 3219.456 3301.376 3180.5440000000003 3301.376 3133.44 L 3301.376 2945.024 C 3301.376 2869.2480000000005 3356.672 2805.7599999999998 3430.4 2793.472 C 3663.8720000000003 2754.56 3694.5920000000006 2652.1600000000003 3694.5920000000006 2600.9600000000005 C 3694.5920000000006 2463.744 3604.48 2344.96 3471.36 2277.376 L 3473.408 2277.376 C 3471.36 2277.376 3469.312 2275.328 3465.216 2275.328 C 3442.6880000000006 2263.04 3416.0640000000003 2254.8480000000004 3391.488 2246.656 C 3354.6240000000003 2228.224 3321.8559999999998 2203.648 3299.3280000000004 2172.928 C 3289.088 2027.52 3180.5440000000003 1904.64 3024.896 1845.248 L 3022.848 1845.248 C 3012.608 1841.152 3002.368 1839.104 2992.128 1835.008 C 2914.304 1806.336 2846.7200000000003 1763.328 2824.192 1687.5520000000001 C 2799.6160000000004 1771.52 2727.936 1814.5280000000002 2635.7760000000003 1843.2 C 2629.632 1845.248 2621.44 1847.2960000000003 2615.296 1851.3920000000003 L 2871.296 1579.008 L 3024.896 1785.8560000000002 L 3147.7760000000003 1687.5520000000001 L 3178.496 1687.5520000000001 L 3444.7360000000003 2054.1440000000002 L 3633.1520000000005 2021.376 L 3909.632 2334.7200000000003 C 3819.5200000000004 2932.7360000000003 3444.7360000000003 3440.6400000000003 2924.5440000000003 3715.072 L 2924.5440000000003 3715.072 Z  M 837.6320000000001 2736.1279999999997 C 849.92 2699.264 870.4000000000001 2637.824 892.9280000000001 2570.2400000000002 C 915.456 2637.824 935.936 2699.264 948.224 2736.1279999999997 C 935.936 2740.2239999999997 915.456 2744.3200000000006 892.9280000000001 2744.3200000000006 C 870.4000000000001 2744.3200000000006 849.92 2740.2239999999997 837.6320000000001 2736.1279999999997 L 837.6320000000001 2736.1279999999997 Z  M 499.71200000000005 2562.0480000000002 C 512 2525.184 530.432 2465.792 552.96 2402.304 C 575.488 2467.84 595.9680000000001 2527.2320000000004 606.208 2564.096 C 569.344 2564.096 534.528 2562.0480000000002 499.71200000000005 2562.0480000000002 L 499.71200000000005 2562.0480000000002 Z  M 2048 3932.1600000000003 C 1247.232 3932.1600000000003 561.152 3430.4 288.76800000000003 2723.84 C 342.01599999999996 2723.84 399.36000000000007 2725.8880000000004 456.704 2725.8880000000004 C 485.37600000000003 2734.0800000000004 516.096 2738.1760000000004 550.912 2738.1760000000004 C 577.5360000000001 2738.1760000000004 604.1600000000001 2736.1279999999997 626.6880000000001 2729.9840000000004 C 638.976 2729.9840000000004 651.2640000000001 2729.9840000000004 665.6 2732.032 C 661.504 2744.3200000000006 661.504 2748.416 661.504 2752.512 C 661.504 2842.6240000000003 757.76 2908.1600000000003 890.8800000000001 2908.1600000000003 C 1019.9040000000001 2908.1600000000003 1114.112 2846.7200000000003 1118.208 2760.704 C 1138.688 2762.752 1161.2160000000001 2764.8 1181.6960000000001 2766.848 C 1726.464 2826.2400000000002 1763.328 2924.5440000000003 1763.328 2928.6400000000003 C 1765.376 2936.832 1753.0880000000002 2979.84 1642.496 3053.568 C 1411.0720000000001 3213.312 1331.2 3309.568 1351.68 3409.92 C 1376.256 3530.752 1533.952 3561.472 1773.568 3606.5280000000002 C 1841.152 3618.8160000000003 1916.9279999999999 3633.1520000000005 1994.7520000000002 3651.584 C 2080.768 3670.016 2172.928 3688.4480000000003 2260.992 3706.8800000000006 C 2420.736 3739.648 2584.576 3772.4160000000006 2715.648 3811.3280000000004 C 2508.8 3889.1520000000005 2283.52 3932.1600000000003 2048 3932.1600000000003 L 2048 3932.1600000000003 Z  M 2048 0 C 919.552 0 0 919.552 0 2048 C 0 3176.4480000000003 919.552 4096 2048 4096 C 3176.4480000000003 4096 4096 3176.4480000000003 4096 2048 C 4096 919.552 3176.4480000000003 0 2048 0 L 2048 0 Z " fill-rule="evenodd" fill="rgb(53,49,46)"/></svg>