<svg width="500" height="500" viewBox="0 0 500 500" fill="none" xmlns="http://www.w3.org/2000/svg">
<path d="M194.042 216.215L249.987 340.326L333.254 292.312L333.316 292.287V196.182L194.042 216.215Z" fill="#2BBDF7"/>
<path d="M440.846 124.122L388.873 104.54L333.329 100.052V398.71L416.658 446.749L482.429 312.107L440.946 181.916L440.846 124.122Z" fill="#2891F9"/>
<path d="M435.971 100.077L416.671 148.105H416.646V446.724L499.987 398.697V100.077H435.971Z" fill="#2BBDF7"/>
<path d="M416.658 52.0125L333.316 100.077L416.658 148.13L500 100.077L416.658 52.0125Z" fill="#2B6DEF"/>
<path d="M250.025 244.185V244.16L166.696 150.888L0.0249023 100.04V398.659L83.3417 446.712L107.154 281.456L166.696 292.275V292.224L250.038 340.264V244.185H250.025Z" fill="#2891F9"/>
<path d="M83.3669 52L0 100.052L249.975 244.247L287.749 222.471L333.305 196.182L83.3669 52Z" fill="#2B6DEF"/>
<path d="M83.3656 244.198H83.353V446.713L166.695 398.673V292.25L83.3656 244.198Z" fill="#2BBDF7"/>
</svg>
