<?xml version="1.0" standalone="no"?><!-- Generator: Gravit.io --><svg xmlns="http://www.w3.org/2000/svg" xmlns:xlink="http://www.w3.org/1999/xlink" style="isolation:isolate" viewBox="0 0 4096 4096" width="4096" height="4096"><linearGradient id="_lgradient_0" x1="1.6931216931216964%" y1="98.3068783068783%" x2="98.30687830687835%" y2="1.5873015873015928%"><stop offset="0%" stop-opacity="1" style="stop-color:rgb(26,0,60)"/><stop offset="23.47826086956522%" stop-opacity="1" style="stop-color:rgb(84,28,71)"/><stop offset="48.69565217391305%" stop-opacity="1" style="stop-color:rgb(122,48,76)"/><stop offset="100%" stop-opacity="1" style="stop-color:rgb(236,147,104)"/></linearGradient><path d=" M 0 3887 C 0 2380.5374145507812 0 1146.5374145507812 0 185 C 0 102 88 0 189 0 C 1159.7422485351562 0 2404.0755920410156 0 3908 0 C 4004.7642822265625 0 4096 86 4096 183 C 4096 238.777099609375 4096 1484.777099609375 4096 3901 C 4096 4002.121826171875 4006 4096 3901 4096 C 3851.521240234375 4096 2613.521240234375 4096 187 4096 C 82 4096 0 3998 0 3887 Z " fill="url(#_lgradient_0)"/><path d=" M 3501.4972587951142 2902.3299545495747 L 3501.4972587951142 1252.3299065018614 L 2069.8177733867096 425.2306540949838 L 642.3368898884814 1252.3299065018614 L 642.3368898884814 2902.3299545495747 L 2069.8177733867096 3725.2306538447356 L 3501.4972587951142 2902.3299545495747 Z  M 764.0926165808122 2826.757307338369 L 764.0926165808122 1319.5054950368499 L 2069.8177733867096 567.9787434458007 L 3371.344651103007 1319.5054950368499 L 3371.344651103007 2826.757307338369 L 2069.8177733867096 3578.2840889592394 L 764.0926165808122 2826.757307338369 Z " fill-rule="evenodd" fill="rgb(255,255,255)"/><path d=" M 2628.2146879197862 1143.1695851424452 L 1503.0238802569388 1143.1695851424452 L 1377.0696817836563 1718.360456868911 L 2762.565864989763 1718.360456868911 L 2628.2146879197862 1143.1695851424452 Z " fill="rgb(255,255,255)"/><path d=" M 1704.5506458619043 2121.4138279197964 L 1368.6727832664844 1911.490163797659 L 995.008637105223 2192.7879057531322 L 1507.2223695552861 3087.0626828816285 L 1712.9475443790761 3087.0626828816285 L 1952.260553510122 2856.1466523472773 L 1952.260553510122 2742.787841689514 L 1704.5506458619043 2503.474992717514 L 1704.5506458619043 2121.4138279197964 Z " fill="rgb(255,255,255)"/><path d=" M 2762.565864989763 1907.2917545788346 L 2435.084980991038 2121.4138279197964 L 2435.084980991038 2503.474992717514 L 2183.176584044473 2742.787841689514 L 2183.176584044473 2860.3452217251474 L 2426.688002394343 3082.864273662804 L 2628.2146879197862 3082.864273662804 L 3140.42846040961 2192.7879057531322 L 2762.565864989763 1907.2917545788346 Z " fill="rgb(255,255,255)"/><path d=" M 1704.5506458619043 1802.329922517766 L 1826.3063550368395 2121.4138279197964 L 1788.5201115107593 2482.4826263053 L 2346.9171061233583 2478.28405692743 L 2313.32919173658 2121.4138279197964 L 2430.8865717722133 1802.329922517766 L 1704.5506458619043 1802.329922517766 Z " fill="rgb(255,255,255)"/></svg>