<svg width="500" height="305" viewBox="0 0 500 305" fill="none" xmlns="http://www.w3.org/2000/svg">
<path d="M31.2644 288.795V277.429V32.2654C31.2644 32.2654 126.545 95.4232 186.957 135.24C192.689 139.018 196.568 142.105 196.568 148.97V289.016C196.568 296.567 201.987 304.256 212.357 304.256C221.282 304.256 227.46 297.254 227.46 289.016V148.284C226.774 128.375 215.236 117.199 208.925 112.998C156.751 78.2608 69.687 20.8285 45.5384 4.53086C38.2664 -0.37683 29.5761 0.0686318 29.0624 0.0686318C16.019 0.0686318 0.22951 11.6704 0.22951 30.2058C0.22951 102.975 0 273.879 0 277.429V288.795C0 298.627 7.38553 304.805 16.019 304.805C24.6524 304.805 31.2644 297.254 31.2644 288.795Z" fill="#4FA89B"/>
<path d="M468.673 288.792V277.423V32.2134C468.673 32.2134 373.201 95.3833 312.667 135.208C306.924 138.986 303.037 142.074 303.037 148.94V289.013C303.037 296.565 297.607 304.256 287.216 304.256C278.274 304.256 272.083 297.252 272.083 289.013V148.254C272.771 128.341 284.332 117.163 290.655 112.961C342.934 78.2176 430.173 20.7743 454.37 4.4736C461.657 -0.435029 470.364 0.0105178 470.879 0.0105178C483.949 0.0105178 499.77 11.6145 499.77 30.1534C499.77 102.936 500 273.873 500 277.423V288.792C500 298.625 492.6 304.805 483.949 304.805C475.298 304.805 468.673 297.252 468.673 288.792Z" fill="#4FA89B"/>
</svg>
