<svg width="500" height="500" viewBox="0 0 500 500" fill="none" xmlns="http://www.w3.org/2000/svg">
<path d="M181.972 193.169C179.732 186.45 175.813 179.731 171.334 174.132C166.854 169.653 161.255 167.413 155.096 167.973H149.497C154.536 169.653 159.016 173.012 162.935 176.932C166.854 182.531 170.214 188.69 173.013 194.849L236.283 346.024C237.963 343.225 239.083 339.865 239.643 336.506C239.083 332.587 237.963 328.667 236.283 325.308L181.972 193.169Z" fill="#111111"/>
<path d="M304.592 346.585H309.631C315.79 346.585 319.71 344.905 321.389 341.546C323.069 335.387 323.629 329.228 323.629 323.069V190.37C323.069 183.091 324.189 175.812 326.429 168.533C322.509 169.093 320.27 169.653 318.59 171.893C316.91 174.133 315.79 176.372 315.79 179.172C315.23 184.211 315.23 189.25 315.23 194.289V326.988C315.79 331.467 315.23 335.947 312.991 340.426C310.191 342.666 307.392 344.905 304.592 346.585Z" fill="#111111"/>
<path d="M250.28 26.3157C127.1 26.3157 26.876 126.54 26.876 249.72C26.876 372.9 127.1 473.124 250.28 473.124C373.461 473.124 473.685 372.9 473.685 249.72C473.685 126.54 373.461 26.3157 250.28 26.3157ZM371.221 168.533C364.502 167.973 357.783 169.093 351.624 172.452C347.705 174.692 345.465 178.051 345.465 182.531C344.905 190.369 344.345 198.208 344.345 206.607V325.308C344.345 329.787 344.905 334.826 347.145 339.306C348.824 342.665 351.624 344.905 354.983 345.465C360.583 347.144 366.182 347.704 371.781 348.264V355.543H282.755V348.264C289.474 348.824 295.633 347.704 301.792 344.905C305.151 343.225 307.951 340.425 308.511 336.506C309.071 330.907 309.631 324.748 309.631 319.149V185.33L240.762 354.423H232.923L165.734 190.369V302.911C165.174 313.55 167.973 323.628 173.013 332.587C179.172 340.425 187.57 345.465 197.089 347.144V354.423H127.66V347.144C136.618 346.584 145.017 342.105 150.616 335.386C156.215 327.547 159.015 317.469 158.455 307.951V180.851C155.095 176.932 150.056 173.572 145.017 171.892C139.418 170.213 133.819 169.093 128.22 169.093V161.814H190.93L251.96 308.511L311.87 161.814H370.661L371.221 168.533Z" fill="#111111"/>
<path d="M160.135 328.667C159.015 332.587 156.775 335.946 154.535 338.746C151.176 341.545 147.816 344.345 144.457 346.584H173.012C169.653 344.905 166.853 342.105 165.174 339.306C162.374 335.946 161.254 332.587 160.135 328.667Z" fill="#111111"/>
<path d="M250.28 500C112.542 500 0.55991 388.578 0 250.28C0 112.542 111.422 0.55991 249.72 0C387.458 0 499.44 111.422 500 249.72C499.44 387.458 388.018 499.44 250.28 500ZM250.28 10.0784C118.141 10.0784 10.6383 117.021 10.6383 249.72C10.6383 381.859 117.581 489.362 250.28 489.362C382.979 489.362 489.922 382.419 489.922 249.72C489.362 117.581 382.419 10.6383 250.28 10.0784Z" fill="#111111"/>
</svg>
