<svg width="500" height="500" viewBox="0 0 500 500" fill="none" xmlns="http://www.w3.org/2000/svg">
<path d="M129.712 35.8065L374.899 177.359V321.719L0.000488281 105.179L120.289 35.8065C123.266 34.0873 126.935 34.0873 129.912 35.8065" fill="#3CA9E5"/>
<path d="M374.899 33L250 105.18L374.899 177.36V33Z" fill="#2853C3"/>
<path d="M374.9 33L495.188 102.373C498.192 104.107 500.031 107.325 500 110.794L500 393.9L374.9 321.72V33Z" fill="#1A4199"/>
<path d="M499.999 393.899L379.711 463.272C376.723 464.951 373.076 464.951 370.088 463.272L124.9 321.719V177.159L499.999 393.899Z" fill="#2853C3"/>
<path d="M0 105.18L0.000387261 388.286C-0.0306649 391.755 1.80765 394.972 4.81193 396.707L125.1 466.08V177.16L0 105.18Z" fill="#60BEFF"/>
<path d="M125.1 466.079L250 393.899L125.1 321.719V466.079Z" fill="#3CA9E5"/>
</svg>
