<?xml version="1.0" standalone="no"?><!-- Generator: Gravit.io --><svg xmlns="http://www.w3.org/2000/svg" xmlns:xlink="http://www.w3.org/1999/xlink" style="isolation:isolate" viewBox="0 -0.5007684055590145 4096 4096.500768405559" width="4096" height="4096.500768405559"><path d=" M 29 2048 C 23.774121417868372 926.3192316139546 923.5445202421029 0.47370520948871664 2048 -0.5 C 3173.6852395009173 -1.4747701013317052 4075.731659907318 925.0957954333421 4070.5 2048 C 4065.2994429000814 3164.228412595918 3166.9751966913154 4078.469040725923 2048 4077.5 C 930.2545630516531 4076.5320242550324 34.19477625848503 3163.0049764138034 29 2048 Z  M 2012 904 C 2035.6666666666667 884.6666666666666 2059.3433333333337 884.6766666666666 2083 904 L 3173 2007 C 3186.3705775709823 2025.337057757086 3186.3805775709825 2057.347057757086 3173 2077 L 2088 3172 Q 2062.1465779348327 3183.86028506573 2047 3183 Q 2031.6200023122635 3182.1264573173794 2007 3167 L 925 2074 C 907.6532611417687 2053.334880124668 901.6632611417687 2029.3448801246677 919 2002 L 2012 904 Z " fill-rule="evenodd" fill="rgb(29,85,240)"/><path d=" M 27.250003466170938 2057.499999385587 C 19.548708713555907 933.3309411936989 921.7941021257059 -6.14413012911541e-7 2046.250003466171 -6.144130111351842e-7 C 2747.333333333333 -6.144130093588274e-7 3231.333333333334 347.3333333333333 3492 608 C 3226.000000000001 342 3020.5 355 2919 353 C 2817.499999999999 351 2553.848484848486 355.1515151515149 2359 550 C 2164.151515151515 744.8484848484851 639.0000000000005 2284 599.0000000000002 2324 C 559 2364 457.66666666666663 2475.999999999999 401 2683 C 344.33333333333337 2890 431.8181818181818 3287.818181818181 600.0000000000002 3456 C 768.1818181818187 3624.181818181818 1049.939393939394 3791.757575757576 1353 3708 C 1656.060606060606 3624.242424242424 1724.2424242424242 3538.757575757576 1915 3348 C 2105.757575757576 3157.242424242425 2699.3600265722653 2550.6399734277293 3173 2077 C 3191.333333333334 2058.666666666667 3184.999999999999 2018.9999999999998 3173 2007 C 3497.999999999999 2331 3656.666666666666 2472 3715 2789 C 3769.9016848593974 3087.351441721633 3556.3127219773132 3399.944080877014 3550 3407 C 3056.060606060606 3959.090909090909 2396.969696969697 4086.999999385587 2046.250003466171 4086.999999385587 C 940 4086.999999385587 34.88390197513695 3171.8311310751988 27.250003466170938 2057.499999385587 Z " fill="rgb(36,120,255)"/></svg>