<?xml version="1.0" standalone="no"?><!-- Generator: Gravit.io --><svg xmlns="http://www.w3.org/2000/svg" xmlns:xlink="http://www.w3.org/1999/xlink" style="isolation:isolate" viewBox="0 0 4096 4096" width="4096" height="4096"><path d=" M 1133 2736 L 2962 768 L 3272.000000000001 1092 L 4064 1970 C 4101.448118220231 2031.6810147775288 4101.458118220231 2083.0243481108623 4064 2124 L 2960.000000000001 3325 L 2130.3650096128827 2450.3167773180403 L 1727.2148977064303 1995.045433906844 L 1132 1355 L 563 1964 C 509.6478968680732 2020.6671359116315 509.6578968680732 2074.0104692449645 563 2124 L 1133 2736 L 1126 3323 L 30 2128 C -8 2070 -7.990000000000002 2015.3433333333335 30 1964 L 1120 777.0000000000001 C 1803.4096854111183 1553.9271316611407 2419.086352077785 2204.6037983278075 2967 2729 L 3389 2284 L 3499 2156 C 3556.45362788276 2071.656875249853 3556.4636278827597 1998.6668752498529 3499 1937 L 3389 1810 L 2956 1355 L 1126 3323 L 1133 2736 Z " fill="rgb(57,52,53)"/></svg>