<?xml version="1.0" standalone="no"?><!-- Generator: Gravit.io --><svg xmlns="http://www.w3.org/2000/svg" xmlns:xlink="http://www.w3.org/1999/xlink" style="isolation:isolate" viewBox="0 0 4096 4096" width="4096" height="4096"><path d=" M 2496.931132660633 735.2003664468003 L 1998.3394684393693 1233.329932505393 L 1998.3394684393693 2025.177325907523 L 2496.931132660633 1525.0631829913468 L 2496.931132660633 735.2003664468003 Z " fill-rule="evenodd" fill="rgb(255,255,255)"/><path d=" M 1827.5072728569116 1404.0038077502422 L 1362.6847758618612 1868.3955184659562 L 1362.6847758618612 2658.2583377196124 L 1827.5072728569116 2193.8666297130076 L 1827.5072728569116 1404.0038077502422 Z " fill-rule="evenodd" fill="rgb(255,255,255)"/><path d=" M 1193.8389898493142 2037.084808725895 L 766.7584859930705 2463.7694968380183 L 766.7584859930705 3253.6323160916745 L 1193.8389898493142 2826.947627979551 L 1193.8389898493142 2037.084808725895 Z " fill-rule="evenodd" fill="rgb(255,255,255)"/><path d=" M 3337.187188046811 838.3985242331196 C 3339.1736152259305 840.3831037998119 3339.1736152259305 842.3676833665043 3341.1600288595046 844.352264287751 L 3698.7158103662846 487.12787320085016 C 3696.7293831871652 485.1432936341578 3694.742969553591 481.17413450077316 3690.770115195352 479.18955357952626 C 3565.625595731643 354.1610178504823 3398.766240961879 284.7007194707054 3219.9883502084886 284.7007194707054 C 3043.196886634218 284.7007194707054 2876.337531864454 354.1610178504823 2749.206598767171 479.18955357952626 L 2663.7904874303963 564.526491201951 L 2663.7904874303963 1354.3893091010523 L 3180.2599420815536 838.3985242331196 C 3225.9476182003013 796.7223452052534 3295.472352740757 796.7223452052534 3337.187188046811 838.3985242331196 Z " fill-rule="evenodd" fill="rgb(255,255,255)"/><path d=" M 3337.187188046811 993.1957602353211 L 2824.690587753893 1505.217387324424 L 3605.354017404123 1505.217387324424 L 3692.7565423744713 1417.8958674261978 C 3817.901061838181 1292.8673316971538 3887.4257963786354 1126.162615585689 3887.4257963786354 947.5504207195158 C 3887.4257963786354 772.9073863412818 3819.8874890173 610.1718307177564 3700.7022239998587 485.1432936341578 L 3343.146456038624 842.3676833665043 C 3378.902036898411 886.0284433156173 3378.902036898411 951.5195812074551 3337.187188046811 993.1957602353211 Z " fill="rgb(225,222,217)"/><path d=" M 1352.752667057355 2975.7911225725666 L 931.6314244201512 3398.5066542604145 L 1712.2948621977089 3398.5066542604145 L 2133.416096707585 2975.7911225725666 L 1352.752667057355 2975.7911225725666 Z " fill="rgb(225,222,217)"/><path d=" M 1521.5984490062383 2807.101832312628 L 2302.2618786564685 2807.101832312628 L 2767.084375651519 2342.7101243060233 L 1986.4209460012887 2342.7101243060233 L 1521.5984490062383 2807.101832312628 Z " fill="rgb(225,222,217)"/><path d=" M 3436.5082354552396 1675.8912625692733 L 2655.8448058050094 1675.8912625692733 L 2157.253155129292 2172.0362490611733 L 2937.9165847795216 2172.0362490611733 L 3436.5082354552396 1675.8912625692733 Z " fill="rgb(225,222,217)"/><path d=" M 3841.7381202598876 330.34605763195617 C 3676.8651791236975 165.6259227126493 3456.3724530642526 74.33524530650399 3223.961204566728 74.33524530650399 C 2989.563528890083 74.33524530650399 2771.0572164642126 165.6259227126493 2606.1842888735678 330.34605763195617 L 587.9806006578985 2346.679280730298 C 568.1163911762128 2366.5250763972217 556.1978660290233 2396.2937834431523 558.18428643537 2426.062476943537 L 558.18428643537 3463.9977962159155 L 2.424727085781342e-13 4021.6647546934964 L 307.89524750795135 4021.6647546934964 L 721.070804456104 3608.87212083911 L 1754.0096975037634 3608.87212083911 C 1783.8060103717376 3608.87212083911 1811.6159096061376 3596.9646515662835 1831.480113669605 3575.13427091445 L 3839.751693080768 1568.7239442950147 L 3841.7381202598876 1566.7393593101042 C 4004.624634216958 1402.01922818355 4095.9999999999995 1183.715433856203 4095.9999999999995 951.5195812074551 C 4095.9999999999995 715.354568070768 4006.611047850532 497.0507737434209 3841.7381202598876 330.34605763195617 Z  M 2667.76332824309 564.526491201951 L 2753.1794395798643 479.18955357952626 C 2878.3239590435737 354.1610178504823 3045.183313813338 284.7007194707054 3223.961204566728 284.7007194707054 C 3400.752668140998 284.7007194707054 3567.6120229107623 354.1610178504823 3694.742969553591 479.18955357952626 C 3696.7293831871652 481.17413450077316 3698.7158103662846 485.1432936341578 3702.688651178978 487.12787320085016 C 3823.860329829994 612.1564102844487 3889.4122100122095 774.8919659079742 3889.4122100122095 949.5350002862082 C 3889.4122100122095 1126.162615585689 3819.8874890173 1292.8673316971538 3694.742969553591 1419.8804497019992 L 3607.3404445832425 1507.2019587637888 L 2826.6770149330127 1507.2019587637888 L 3339.1736152259305 995.1803398020136 C 3380.888450531985 953.5041607741473 3380.888450531985 889.997602449002 3343.146456038624 846.3368438544435 C 3341.1600288595046 844.352264287751 3341.1600288595046 842.3676833665043 3339.1736152259305 840.3831037998119 C 3297.458779919876 798.7069247719456 3227.9340453794216 798.7069247719456 3186.219196527821 840.3831037998119 L 2669.7497554222095 1356.3738900222993 L 2669.7497554222095 564.526491201951 L 2667.76332824309 564.526491201951 Z  M 931.6314244201512 3398.5066542604145 L 1352.752667057355 2977.7757075574773 L 2133.416096707585 2977.7757075574773 L 1712.2948621977089 3398.5066542604145 L 931.6314244201512 3398.5066542604145 Z  M 2157.253155129292 2172.0362490611733 L 2655.8448058050094 1673.9066775843626 L 3436.5082354552396 1673.9066775843626 L 2937.9165847795216 2172.0362490611733 L 2157.253155129292 2172.0362490611733 Z  M 2767.084375651519 2342.7101243060233 L 2302.2618786564685 2807.101832312628 L 1521.5984490062383 2807.101832312628 L 1986.4209460012887 2342.7101243060233 L 2767.084375651519 2342.7101243060233 Z  M 1998.3394684393693 1233.329932505393 L 2498.917546294206 733.215786880108 L 2498.917546294206 1523.078611551982 L 1998.3394684393693 2025.177325907523 L 1998.3394684393693 1233.329932505393 Z  M 1362.6847758618612 1868.3955184659562 L 1827.5072728569116 1404.0038077502422 L 1827.5072728569116 2193.8666297130076 L 1362.6847758618612 2658.2583377196124 L 1362.6847758618612 1868.3955184659562 Z  M 766.7584859930705 2463.7694968380183 L 1193.8389898493142 2039.0693937108056 L 1193.8389898493142 2828.9322129644615 L 766.7584859930705 3253.6323160916745 L 766.7584859930705 2463.7694968380183 Z " fill-rule="evenodd" fill="rgb(57,53,52)"/></svg>