<svg width="500" height="500" viewBox="0 0 500 500" fill="none" xmlns="http://www.w3.org/2000/svg">
<path d="M358.882 187.529V312.472L467.099 250.115V124.943L358.882 187.529Z" fill="#9290B0"/>
<path d="M467.099 375.057L358.882 312.471V437.643L467.099 500V375.057Z" fill="#A2EEE3"/>
<path d="M250.664 124.943V0L34 124.943L142.217 187.529L250.664 124.943Z" fill="#46DDC8"/>
<path d="M250.664 375.057L142.217 312.471L34 375.057L142.217 437.643L250.664 500V375.057Z" fill="#262261"/>
<path d="M34 124.943V250.115V375.057L142.217 312.472V187.529L34 124.943Z" fill="#9290B0"/>
<path d="M358.882 312.471L250.664 375.057V500L358.882 437.643V312.471Z" fill="#46DDC8"/>
<path d="M358.882 187.529L467.099 124.943L358.882 62.586L250.664 0V124.943L358.882 187.529Z" fill="#262261"/>
</svg>
