<svg width="500" height="500" viewBox="0 0 500 500" fill="none" xmlns="http://www.w3.org/2000/svg">
<path fill-rule="evenodd" clip-rule="evenodd" d="M97.5134 105.416L134.369 84.2391L139.333 92.7661L275.189 14.3834L265.261 8.66754L255.286 2.85795L250.322 0L29 127.905V133.621L92.5494 96.8422L97.5134 105.416Z" fill="#001C3A"/>
<path fill-rule="evenodd" clip-rule="evenodd" d="M97.5134 185.954L204.007 124.391L208.971 133.059L344.827 54.6293L334.899 48.8197L324.924 43.1038L319.96 40.2927L29 208.349V214.065L92.5494 177.287L97.5134 185.954Z" fill="#001C3A"/>
<path fill-rule="evenodd" clip-rule="evenodd" d="M97.5134 226.199L238.802 144.583L243.813 153.157L379.622 74.634L369.694 69.0118L359.766 63.2022L354.755 60.3442L29 248.5V254.31L92.5494 217.578L97.5134 226.199Z" fill="#001C3A"/>
<path fill-rule="evenodd" clip-rule="evenodd" d="M97.5134 266.398L274.627 164.121L279.638 172.695L414.464 94.8273L404.536 89.0177L394.561 83.3018L389.597 80.4438L29 288.793V294.509L92.5494 257.73L97.5134 266.398Z" fill="#001C3A"/>
<path fill-rule="evenodd" clip-rule="evenodd" d="M97.5134 306.55L309.47 184.173L314.434 192.841L449.259 114.88L439.331 109.211L429.403 103.401L424.392 100.543L29 328.945V334.661L92.5494 297.976L97.5134 306.55Z" fill="#001C3A"/>
<path fill-rule="evenodd" clip-rule="evenodd" d="M464.199 123.548L459.234 120.643L29 369.237V374.953L92.5494 338.268L97.5134 346.842L309.47 224.466L314.434 233.04L471.645 142.288V130.763V127.905L464.199 123.548Z" fill="#001C3A"/>
<path fill-rule="evenodd" clip-rule="evenodd" d="M56.2557 399.363L91.8939 378.795L96.8579 387.369L308.439 265.18L313.404 273.848L471.645 182.44V170.915V159.389V153.673L51.3853 396.505L56.2557 399.363Z" fill="#001C3A"/>
<path fill-rule="evenodd" clip-rule="evenodd" d="M308.439 305.472L313.403 314.14L471.644 222.732V211.207V199.681V193.965L86.1802 416.604L91.1911 419.462L127.344 398.519L132.355 407.187" fill="#001C3A"/>
<path fill-rule="evenodd" clip-rule="evenodd" d="M125.986 439.608L162.186 418.619L167.15 427.286L308.439 345.624L313.403 354.292L471.644 262.884V251.359V239.927V234.164L120.928 436.657L125.986 439.608Z" fill="#001C3A"/>
<path fill-rule="evenodd" clip-rule="evenodd" d="M160.782 459.708L196.982 438.812L201.993 447.386L308.44 385.917L313.404 394.49L471.645 303.083V291.651V280.126V274.41L155.818 456.85L160.782 459.708Z" fill="#001C3A"/>
<path fill-rule="evenodd" clip-rule="evenodd" d="M190.66 476.949L195.624 479.807L231.918 458.864L236.788 467.531L308.439 426.068L313.403 434.735L471.645 343.328V331.802V320.277V314.561L190.66 476.949Z" fill="#001C3A"/>
<path fill-rule="evenodd" clip-rule="evenodd" d="M230.419 500L266.619 478.964L271.583 487.631L308.439 466.267L313.403 474.934L471.645 383.621V372.095V360.57V354.854L225.455 497.142L230.419 500Z" fill="#001C3A"/>
<path fill-rule="evenodd" clip-rule="evenodd" d="M310.032 34.483L300.057 28.7671L290.128 23.0513L285.164 20.0996L29 168.057V173.773L92.5494 137.135L97.5134 145.662L169.165 104.292L174.269 112.959L310.032 34.483Z" fill="#001C3A"/>
</svg>
