<svg width="463" height="500" viewBox="0 0 463 500" fill="none" xmlns="http://www.w3.org/2000/svg">
<mask id="mask0" mask-type="alpha" maskUnits="userSpaceOnUse" x="0" y="0" width="463" height="500">
<path d="M0 0H462.402V500H0V0Z" fill="white"/>
</mask>
<g mask="url(#mask0)">
<path fill-rule="evenodd" clip-rule="evenodd" d="M311.924 276.504L312.724 281.233L312.987 283.107C316.346 309.142 326.468 316.75 351.603 327.842C351.66 327.865 351.717 327.854 351.763 327.877L442.9 368.02L237.125 485.172V418.114C237.125 393.518 238.61 389.097 260.501 377.034C264.796 374.669 269.149 372.201 273.913 369.494L276.884 367.803C290.514 360.538 301.619 349.811 309.811 337.073C310.108 336.616 312.301 333.314 312.587 332.846C310.883 331.916 309.305 330.772 307.891 329.442C306.398 328.113 305.126 326.555 304.121 324.827C296.958 338.741 286.07 350.507 272.131 358.173L268.749 360.092C264.054 362.754 259.267 365.37 254.971 367.723C228.122 382.517 225.986 391.599 225.986 418.125V485.252L18.3029 365.964L107.178 327.203L112.959 324.724C115.221 323.627 122.327 320.725 127.811 320.565C133.409 320.223 141.91 320.577 146.491 326.392C150.724 331.743 154.959 337.093 159.196 342.442C168.998 355.123 181.817 365.484 197.126 371.699C197.17 371.728 197.216 371.755 197.263 371.779C201.296 373.424 205.638 374.372 209.945 375.377C210.836 373.675 212.23 371.699 213.51 370.099C214.435 368.945 215.818 367.518 217.109 366.181C210.596 364.913 203.113 362.845 197.286 360.058L197.263 360.046C185.633 354.529 175.579 346.795 167.856 336.856C167.477 336.427 167.133 335.969 166.827 335.485C166.039 334.457 165.251 333.452 164.531 332.366C162.474 329.602 159.344 325.478 154.968 319.971C152.032 316.247 147.919 313.791 143.543 312.203L143.555 312.226C138.836 310.535 133.387 309.781 127.434 309.827C118.408 310.124 108.4 314.922 108.195 315.013L105.075 316.361L104.836 316.453L96.7467 319.937C96.6896 319.949 96.6896 320.006 96.6439 320.029L18.977 353.912L225.803 24.6757V164.047C225.803 188.128 224.032 193.395 201.948 205.561C200.198 206.505 198.418 207.392 196.612 208.223L193.756 209.628C193.036 209.948 192.351 210.325 191.654 210.668L191.62 210.679H191.608C162.634 224.559 142.401 252.708 140.641 285.551C142.538 286.065 145.417 286.876 147.028 287.368C148.205 287.71 149.987 288.601 151.484 289.401C151.769 259.048 170.141 232.864 196.681 220.23L196.692 220.218C196.772 220.184 196.829 220.195 196.898 220.161C198.439 219.375 199.993 218.613 201.559 217.876C207.19 215.259 212.593 212.18 217.714 208.669C218.525 208.143 219.199 207.583 219.942 207.058C221.564 205.881 223.084 204.682 224.409 203.516C225.186 202.842 225.894 202.214 226.386 201.597C235.229 192.652 236.965 182.576 236.965 164.047V24.6186L444.431 356.893L352.86 316.567H352.814C332.501 307.611 326.331 300.117 323.612 278.571C323.566 278.286 323.486 277.543 323.418 277.269C318.185 242.826 292.388 215.192 258.501 205.527L253.931 204.213C253.361 205.973 252.602 207.666 251.669 209.263C250.64 210.975 249.425 212.568 248.047 214.015L252.309 214.963C282.779 222.389 306.349 246.287 311.924 276.504V276.504ZM461.591 363.553L236.211 2.59337C235.702 1.79284 234.997 1.13487 234.164 0.681253C233.331 0.227639 232.396 -0.0067337 231.447 0.000147256C230.498 -0.0067337 229.563 0.227639 228.73 0.681253C227.896 1.13487 227.192 1.79284 226.683 2.59337L0.81133 362.103C0.440125 362.711 0.195059 363.387 0.0907177 364.092C-0.013624 364.797 0.0248901 365.515 0.203968 366.205C0.383046 366.895 0.699029 367.541 1.13311 368.106C1.5672 368.671 2.11051 369.143 2.73072 369.494L228.602 499.246C229.466 499.737 230.442 499.995 231.435 499.995C232.429 499.995 233.405 499.737 234.269 499.246L459.66 370.956C460.286 370.6 460.835 370.125 461.276 369.556C461.718 368.988 462.042 368.338 462.231 367.643C462.414 366.954 462.451 366.235 462.341 365.531C462.231 364.827 461.976 364.154 461.591 363.553" fill="#553580"/>
</g>
</svg>
