<svg width="500" height="500" viewBox="0 0 500 500" fill="none" xmlns="http://www.w3.org/2000/svg">
<path d="M330.271 282.609L456.37 156.522C467.241 147.827 471.589 134.783 471.589 121.74V19.5662C471.589 13.0444 469.415 8.69661 465.067 6.52271L223.739 245.653C215.043 254.348 208.521 267.392 208.521 280.435C208.521 293.479 212.869 306.522 223.739 315.218L393.321 484.783C404.191 493.478 415.062 500 428.107 500C441.151 500 454.196 495.652 462.893 484.783C482.46 465.217 482.46 432.609 462.893 413.044L330.271 282.609V282.609Z" fill="#008C62"/>
<path d="M454.65 0H76.353C43.7412 0 22 23.913 22 54.3477V449.999C22 478.26 43.7412 499.999 72.0048 499.999C100.268 499.999 122.01 478.26 122.01 449.999V97.8259H374.208L465.521 6.52173C465.521 2.17391 461.172 0 454.65 0Z" fill="#00E6A0"/>
</svg>
