<?xml version="1.0" encoding="UTF-8"?>
<!-- Generator: Adobe Illustrator 21.1.0, SVG Export Plug-In . SVG Version: 6.00 Build 0)  -->
<svg version="1.1" id="Calque_1" xmlns="http://www.w3.org/2000/svg" xmlns:xlink="http://www.w3.org/1999/xlink" x="0px" y="0px" viewBox="0 0 35 40" style="enable-background:new 0 0 35 40;" xml:space="preserve">
<style type="text/css">
	.st0{clip-path:url(#SVGID_2_);}
	.st1{clip-path:url(#SVGID_4_);fill:url(#SVGID_5_);}
	.st2{clip-path:url(#SVGID_7_);fill:url(#SVGID_8_);}
	.st3{clip-path:url(#SVGID_10_);fill:url(#SVGID_11_);}
	.st4{clip-path:url(#SVGID_13_);fill:#F5F5F5;}
</style>
<g id="logo-icon-small_white">
	<g>
		<defs>
			<rect id="SVGID_1_" x="0.2" y="0.7" width="111.7" height="38.5"/>
		</defs>
		<clipPath id="SVGID_2_">
			<use xlink:href="#SVGID_1_" style="overflow:visible;"/>
		</clipPath>
		<g class="st0">
			<defs>
				<path id="SVGID_3_" d="M28.1,14.6c-2.9,0.3-5.1,2.9-4.9,5.8c0,0.8-0.3,1.5-1,1.9l0,0c-0.3,0.2-0.7,0.3-1.1,0.3      c-0.4,0-0.7-0.1-1.1-0.3c-0.9-0.5-1.9-0.8-2.9-0.8c-0.2,0-0.4,0-0.6,0c-2.9,0.3-5,2.9-4.8,5.8c0,0.8-0.3,1.5-1,1.9      c-0.3,0.2-0.7,0.3-1.1,0.3c-0.4,0-0.7-0.1-1-0.3c-0.9-0.5-1.9-0.8-2.9-0.8c-0.2,0-0.4,0-0.6,0c-2.7,0.3-4.7,2.6-4.8,5.4      c0,3,2.4,5.5,5.4,5.5c0.2,0,0.4,0,0.5,0c2.6-0.3,4.7-2.3,4.9-4.9c0-0.3,0-0.6,0-0.9c0-0.8,0.3-1.5,1-1.9l0,0      c0.3-0.2,0.7-0.3,1.1-0.3c0.4,0,0.7,0.1,1.1,0.3c0.9,0.5,1.9,0.8,2.9,0.8c0.2,0,0.4,0,0.6,0c2.6-0.3,4.6-2.4,4.8-4.9      c0-0.3,0-0.6,0-0.9c0-0.8,0.3-1.5,1-1.9c0.3-0.2,0.7-0.3,1.1-0.3c0.4,0,0.7,0.1,1,0.3c0.9,0.5,1.9,0.8,2.9,0.8      c0.2,0,0.4,0,0.6,0C31.9,25,34,22.8,34,20c0-3-2.4-5.5-5.4-5.5C28.4,14.5,28.2,14.5,28.1,14.6"/>
			</defs>
			<clipPath id="SVGID_4_">
				<use xlink:href="#SVGID_3_" style="overflow:visible;"/>
			</clipPath>
			
				<linearGradient id="SVGID_5_" gradientUnits="userSpaceOnUse" x1="-2.075772e-02" y1="40.1167" x2="0.2075" y2="40.1167" gradientTransform="matrix(69.1727 -69.1727 -69.1727 -69.1727 2779.4456 2814.4827)">
				<stop offset="0" style="stop-color:#F4C503"/>
				<stop offset="1" style="stop-color:#FFE800"/>
			</linearGradient>
			<polygon class="st1" points="-12.2,26.9 17.1,-2.4 46.4,26.9 17.1,56.1    "/>
		</g>
		<g class="st0">
			<defs>
				<path id="SVGID_6_" d="M16.6,7.7c-2.9,0.3-5.1,2.9-4.9,5.8c0,0.8-0.3,1.5-1,1.9c-0.3,0.2-0.7,0.3-1.1,0.3c-0.4,0-0.7-0.1-1-0.3      c-0.9-0.5-1.9-0.8-2.9-0.8c-0.2,0-0.4,0-0.6,0c-2.7,0.4-4.7,2.6-4.7,5.3c0,3,2.4,5.5,5.4,5.5l0,0c0.2,0,0.4,0,0.5,0      c2.6-0.3,4.7-2.3,4.9-4.9c0-0.3,0-0.6,0-0.9c0-0.8,0.3-1.5,1-1.9c0.3-0.2,0.7-0.3,1.1-0.3c0.4,0,0.7,0.1,1,0.3      c0.9,0.5,1.9,0.8,2.9,0.8c0.2,0,0.4,0,0.6,0c2.7-0.3,4.7-2.6,4.8-5.4c0-3-2.4-5.5-5.4-5.5C16.9,7.6,16.8,7.6,16.6,7.7"/>
			</defs>
			<clipPath id="SVGID_7_">
				<use xlink:href="#SVGID_6_" style="overflow:visible;"/>
			</clipPath>
			
				<linearGradient id="SVGID_8_" gradientUnits="userSpaceOnUse" x1="-2.075773e-02" y1="39.7241" x2="0.2075" y2="39.7241" gradientTransform="matrix(69.1727 -69.1727 -69.1727 -69.1727 2744.2534 2779.2905)">
				<stop offset="0" style="stop-color:#F4C503"/>
				<stop offset="1" style="stop-color:#FFE800"/>
			</linearGradient>
			<polygon class="st2" points="-8.7,16.5 11.4,-3.5 31.4,16.5 11.4,36.6    "/>
		</g>
		<g class="st0">
			<defs>
				<circle id="SVGID_9_" cx="5.6" cy="6.2" r="5.4"/>
			</defs>
			<clipPath id="SVGID_10_">
				<use xlink:href="#SVGID_9_" style="overflow:visible;"/>
			</clipPath>
			
				<linearGradient id="SVGID_11_" gradientUnits="userSpaceOnUse" x1="-2.075773e-02" y1="39.3304" x2="0.2075" y2="39.3304" gradientTransform="matrix(69.1727 -69.1727 -69.1727 -69.1727 2708.9688 2744.0056)">
				<stop offset="0" style="stop-color:#F4C503"/>
				<stop offset="1" style="stop-color:#FFE800"/>
			</linearGradient>
			<polygon class="st3" points="-5.3,6.2 5.6,-4.7 16.5,6.2 5.6,17.1    "/>
		</g>
	</g>
</g>
</svg>