<?xml version="1.0" standalone="no"?><!-- Generator: Gravit.io --><svg xmlns="http://www.w3.org/2000/svg" xmlns:xlink="http://www.w3.org/1999/xlink" style="isolation:isolate" viewBox="0 0 4096 4096" width="4096" height="4096"><path d=" M 0 2048.0000000000005 C 0 917.6780390399999 917.6780390399992 2.2737367544323206e-13 2047.9999999999995 0 C 3178.32196096 0 4096 917.6780390399992 4096 2047.9999999999995 C 4096 3178.321960959999 3178.3219609600005 4095.9999999999995 2048.0000000000005 4096 C 917.6780390400004 4096 0 3178.3219609600005 0 2048.0000000000005 Z " fill="rgb(91,109,238)"/><path d=" M 1776.349738568182 1948.8070248409126 C 1720.2222149545455 1948.4894164339112 1664.181159318182 1953.3343122479523 1608.909090909091 1963.282706646723 C 1654.38651575 1540.636741491568 2004.9142447954546 1220.6118125138003 2422.339896159091 1220.6363636377794 C 2677.8936007954544 1220.6363636377794 2853 1346.3554668026989 2853 1606.6545451260558 C 2853 1866.9536230817766 2642.8378706136364 1992.6727266143325 2336.207874659091 1992.6727266143325 C 2109.8529251136365 1992.6727266143325 2002.7046917727275 1948.8070248409126 1776.349738568182 1948.8070248409126 Z  M 1759.792125340909 2102.9636356109827 C 1453.16213085 2102.9636356109827 1243 2228.6827391435386 1243 2488.9818170992594 C 1243 2749.28089505498 1418.1063984727273 2874.9999985875356 1673.660103840909 2874.9999985875356 C 2091.0857552045454 2875.024549343879 2441.61348425 2554.999620733747 2487.090909090909 2132.353655578592 C 2431.818840681818 2142.302049977363 2375.777785045455 2147.146945791404 2319.6502614318183 2146.8293373844026 C 2093.295308227273 2146.8293373844026 1986.1470748863637 2102.9636356109827 1759.792125340909 2102.9636356109827 Z " fill-rule="evenodd" fill="rgb(255,255,255)"/></svg>