<svg width="500" height="500" viewBox="0 0 500 500" fill="none" xmlns="http://www.w3.org/2000/svg">
<circle cx="250" cy="250" r="250" fill="#0A0817"/>
<path d="M269.326 231.49C279.55 231.49 287.839 239.777 287.839 250C287.839 260.222 279.55 268.509 269.326 268.509H221.272C174.73 268.509 137 230.787 137 184.254C137 137.722 174.73 100 221.272 100H345.201C355.426 100 363.714 108.287 363.714 118.509C363.714 128.732 355.426 137.019 345.201 137.019H221.272C195.179 137.019 174.026 158.167 174.026 184.254C174.026 210.342 195.179 231.49 221.272 231.49H269.326Z" fill="white"/>
<path d="M231.388 268.51C221.164 268.51 212.875 260.223 212.875 250C212.875 239.778 221.164 231.491 231.388 231.491L279.443 231.491C325.985 231.491 363.714 269.213 363.714 315.746C363.714 362.278 325.985 400 279.443 400H155.513C145.289 400 137 391.713 137 381.491C137 371.268 145.289 362.981 155.513 362.981H279.443C305.536 362.981 326.688 341.833 326.688 315.746C326.688 289.658 305.536 268.51 279.443 268.51H231.388Z" fill="white"/>
<path d="M170.141 392.533L140.044 370.971L329.342 106.85L359.439 128.412L170.141 392.533Z" fill="white" fill-opacity="0.5"/>
</svg>
