<svg width="500" height="500" viewBox="0 0 500 500" fill="none" xmlns="http://www.w3.org/2000/svg">
<path d="M252.726 452.697C368.953 452.697 463.174 358.492 463.174 242.285C463.174 126.078 368.953 31.873 252.726 31.873C136.498 31.873 42.2773 126.078 42.2773 242.285C42.2773 358.492 136.498 452.697 252.726 452.697Z" fill="white"/>
<path fill-rule="evenodd" clip-rule="evenodd" d="M81.4476 389.57V392.781H48.3874V332.162L47.3621 335.516L15.7464 325.851L33.6068 267.442L31.4082 270.702L4 252.218L38.2475 201.452L34.9814 204.097L14.1759 178.409L63.4605 138.505L57.1627 140.923L45.3151 110.064L104.181 87.471L97.3014 87.9519L94.9952 54.978L156.627 50.6691L151.062 49.3846L158.499 17.1774L217.373 30.7669L213.663 28.626L230.193 0L281.542 29.6408L279.543 27.4982L303.722 4.95508L343.708 47.8276L342.857 46.0803L372.571 31.5903L398.223 84.1751L397.989 82.7037L430.642 77.5328L440.263 138.265L440.947 133.941L473.6 139.112L463.837 200.753L466.25 195.803L495.964 210.294L468.452 266.693L472.472 262.382L496.651 284.925L453.907 330.756L459.082 327.768L475.612 356.394L421.882 387.41L427.287 386.162L434.724 418.37L375.355 432.074L379.929 432.394L377.623 465.367L318.195 461.212L321.223 462.375L309.375 493.234L252.488 471.401L256.082 474.312L235.277 500L188.323 461.984L190.641 465.419L163.232 483.903L129.669 434.151L130.667 437.414L99.0344 447.083L81.4476 389.57ZM81.4476 350.293L102.096 343.981L118.144 396.462L135.998 384.421L166.512 429.653L180.14 412.826L222.43 447.064L229.994 427.362L280.955 446.921L282.448 425.578L336.98 429.391L332.073 408.14L385.531 395.8L374.455 376.619L422.172 349.075L405.829 333.837L443.522 293.424L423.414 283.617L447.655 233.924L425.661 230.441L434.305 175.873L413.275 179.202L404.635 124.658L385.693 133.894L361.626 84.5584L346.188 98.9529L308.947 59.0235L298.291 77.477L251.148 50.2643L246.277 71.3628L193.242 59.1211L194.782 81.1366L140.342 84.9428L148.392 105.909L97.1316 125.582L110.923 142.611L67.8885 177.454L86.0519 189.703L55.0265 235.691L75.9323 242.082L59.7266 295.079H81.4476V350.293Z" fill="#FF3B81"/>
<path d="M243.852 283.43C243.852 275.21 240.952 268.924 235.148 264.573C229.345 260.126 218.9 255.484 203.813 250.649C188.726 245.718 176.782 240.883 167.981 236.145C143.996 223.187 132.003 205.733 132.003 183.783C132.003 172.373 135.195 162.22 141.578 153.324C148.058 144.331 157.294 137.321 169.287 132.292C181.376 127.264 194.916 124.75 209.906 124.75C224.993 124.75 238.437 127.506 250.235 133.018C262.035 138.433 271.174 146.12 277.654 156.08C284.231 166.04 287.518 177.353 287.518 190.02H243.998C243.998 180.351 240.952 172.857 234.858 167.538C228.765 162.123 220.206 159.416 209.181 159.416C198.542 159.416 190.273 161.688 184.374 166.233C178.474 170.681 175.525 176.58 175.525 183.929C175.525 190.794 178.958 196.547 185.824 201.189C192.788 205.83 202.991 210.181 216.434 214.243C241.193 221.689 259.229 230.923 270.545 241.946C281.86 252.97 287.518 266.701 287.518 283.139C287.518 301.414 280.604 315.774 266.773 326.218C252.944 336.564 234.326 341.738 210.922 341.738C194.674 341.738 179.877 338.788 166.53 332.89C153.184 326.895 142.98 318.723 135.92 308.377C128.957 298.031 125.475 286.04 125.475 272.406H169.141C169.141 295.709 183.068 307.361 210.922 307.361C221.27 307.361 229.345 305.282 235.148 301.125C240.952 296.871 243.852 290.972 243.852 283.43Z" fill="#FF3B81"/>
<path fill-rule="evenodd" clip-rule="evenodd" d="M376.63 153.925L334.756 306.963L300.187 304.543L326.265 146.754L376.63 153.925ZM340.115 322.926L329.229 376.998L283.253 363.606L293.79 311.732L340.115 322.926Z" fill="#FF3B81"/>
</svg>
