<?xml version="1.0" standalone="no"?><!-- Generator: Gravit.io --><svg xmlns="http://www.w3.org/2000/svg" xmlns:xlink="http://www.w3.org/1999/xlink" style="isolation:isolate" viewBox="0 -1.2913994528027024e-12 4096 4096.000000000002" width="4096" height="4096.000000000002"><path d=" M 3866.0748588040856 1188.4653796883686 C 3862.789632008154 1316.7911101752495 3807.087602255911 1412.42975170373 3699.59277910636 1476.8862685043487 C 3679.7529457745068 1488.7424501254193 3672.8704874031423 1500.8188704143736 3672.925547070113 1523.4300403170962 C 3673.604616296088 1873.4994029181782 3673.5495566291165 2223.587118741584 3673.017313181731 2573.5830684533717 C 3672.980606737084 2594.6158612362615 3678.3397476555865 2607.297937861896 3697.6289843177306 2618.4016373676973 C 3821.990418782706 2690.2728559870657 3884.9236181304623 2822.838180830707 3862.587746562594 2962.194197934095 C 3841.1695361109078 3095.7322435608894 3734.427195076626 3205.4294533892767 3596.154018090333 3231.6929145344034 C 3515.98714298068 3246.9811487299944 3438.3346593293645 3234.812962329422 3368.0785242744764 3191.701243091195 C 3346.66031382279 3178.597042352117 3331.5739650727596 3180.9095483648957 3311.495539850699 3192.472078428788 C 3010.557753409997 3366.7909840587067 2709.28960896747 3540.6510591305355 2407.672753300794 3713.8504181987123 C 2387.0437314090236 3725.724953042107 2379.317024810772 3738.7557408918897 2379.372084477743 3762.8351685805037 C 2379.6840892572445 3931.262689844535 2249.688215538913 4077.831523321113 2087.2989044193587 4094.1658911891514 C 1914.3381372413887 4111.619805618931 1761.419088840832 4002.9320230183434 1724.051928189904 3835.091804868669 C 1718.3257228249288 3809.2871742816333 1716.3986344809466 3782.3079374658846 1715.8113313665904 3755.897650542169 C 1715.370854030823 3738.003258776621 1710.4154840034407 3727.046385049409 1694.503240248846 3717.833067442942 C 1388.7202031147035 3541.93578469319 1083.1941110930925 3365.6163778299942 777.7964916277465 3189.0400258542672 C 761.2602383141481 3179.4045841343573 748.266156909012 3179.3311712450627 731.5830778168245 3189.425443523064 C 532.0284914919023 3309.5472836312783 277.689536530919 3194.3991667727696 235.36700585260846 2969.9943174216414 C 208.66306737171433 2828.234028193857 266.36559835723403 2695.687056572539 393.24142428054745 2621.0261481599773 C 413.2831430579608 2609.1883197612306 422.3496348858382 2597.277078473189 422.31292844119093 2572.775526671132 C 421.39526732500906 2222.669457625402 421.5420931035982 1872.6368014689674 422.0926897733073 1522.5857920902088 C 422.11104299563095 1501.552999307319 416.64178274318664 1489.109514571892 397.3892525256898 1477.9324021767961 C 270.0178895996381 1403.950562990209 210.09461871295815 1275.4045938354445 234.55946407036836 1131.0748534823508 C 258.8591304268658 987.6994806900861 369.7309464839665 882.5171635533136 514.0239803924129 861.9615545508383 C 591.3644592642258 850.9679743789789 665.951954787493 865.0632491235333 732.8678033794793 907.7895506929639 C 748.4129826876011 917.736997192376 759.9571595291698 917.4249924128742 775.7776371721462 908.3034409180257 C 1080.2759487436338 732.0941533887718 1385.0128522053287 556.3804028622561 1689.9883475572308 381.0704232268605 C 1708.4333359924876 370.4622607237974 1715.6277991433537 358.294074323225 1715.6828588103247 336.5638590920369 C 1716.178395813063 143.76325858221375 1868.5284943215868 -3.833355344487649 2061.567686721617 0.07588101044736728 C 2212.0274033308065 3.085809471524093 2352.8149717754377 127.2820649355863 2374.1597693378294 275.75963353382235 C 2376.105210904135 289.41443094260944 2379.170199032183 297.8202067668359 2379.170199032183 316.61390642624184 C 2379.170199032183 357.78018409816315 2394.329960671508 375.2340985279434 2426.374686848581 393.5506144069347 C 2722.3020435949297 562.8774435648241 3017.4035053367143 733.5257047300156 3312.3030816329388 904.4676174523853 C 3332.565039078236 916.2503861841614 3347.284323381794 916.7275699645759 3368.3905290539783 904.7612690095635 C 3568.6975974941697 790.5124600449134 3811.565788502879 900.0077844277411 3860.330300216787 1126.082777010321 C 3864.9186057976963 1147.1155697932109 3864.478128461929 1169.249555915519 3866.0748588040856 1188.4653796883686 L 3866.0748588040856 1188.4653796883686 Z  M 1254.6315608182003 2389.371775991011 C 1251.6032791348 2391.9962867832915 1249.566071456876 2394.198673462128 1247.033326776214 2395.6118715810485 C 1081.028430858903 2491.5441646667073 915.1520074978575 2587.6416367532784 748.5414552438666 2682.436030054872 C 739.3281376374 2687.6666984171093 721.4337458718525 2686.5838583000145 712.0736024867967 2680.931065824334 C 668.0442221323879 2654.3555998997053 621.1517390954912 2636.6998000243643 569.8361294785977 2635.323308350092 C 399.11445542411184 2630.955241437066 295.2902767392884 2770.403024652072 289.45395204037135 2891.55264521041 C 282.69996622527236 3033.4597602167837 390.066316818558 3178.817281020001 563.7061532225025 3177.5142022350224 C 715.9828388417318 3176.3763024509567 831.8650845931857 3054.2723143317894 830.3601203626474 2901.922215823266 C 830.12152847244 2874.70438711731 838.1235334055465 2859.306033587777 862.0010756486002 2845.7430022906083 C 1038.926138848476 2745.002164956156 1215.13542637773 2643.0500149483437 1391.1795349060712 2540.8409198280006 C 1408.1929720000842 2530.911826550912 1421.8844758535186 2529.2783897641084 1440.40287717807 2538.01452359016 C 1550.1918531180759 2589.6237847642315 1663.724886412104 2598.3599185902835 1780.7633851699472 2565.2690587407633 C 1792.3993281231342 2562.0021851671554 1807.8527413196377 2565.3057651854106 1819.4886842728247 2570.2794884351165 C 1853.900976129647 2584.92535984938 1886.7715973112836 2603.53552728555 1921.4041278359896 2617.447269806868 C 1941.1521950562249 2625.449274739974 1947.8144147597056 2636.22261624395 1947.7777083150581 2657.200349359869 C 1947.172051978378 2933.141046995775 1947.227111645349 3209.0083317423864 1947.7226486480872 3484.9306761559687 C 1947.7410018704109 3504.403445041349 1941.6110256143156 3515.4887913248267 1923.863459627357 3523.9863332606715 C 1830.886035335804 3568.8049021749966 1760.721666392534 3684.4485560362436 1779.864077276089 3808.1309212752435 C 1802.0714762876917 3951.8182988470103 1949.6864434367164 4060.3225492243614 2092.144155112799 4032.462357737078 C 2217.64348936184 4007.9608059350203 2300.0861640396242 3922.2696109059525 2317.7419639149643 3790.4567681775798 C 2329.689911647653 3701.0582222391367 2286.688311743368 3583.0470026981407 2171.7237271080958 3523.949626816024 C 2156.1234881330033 3515.9843283275654 2147.5158268632167 3507.2665477238365 2147.5708865301876 3488.105783617958 C 2148.1398364222205 3220.093678025864 2148.1948960891914 2952.0815724337695 2147.5708865301876 2684.124526508647 C 2147.5708865301876 2660.3020439325637 2158.509407035076 2655.420086794476 2179.3770208170536 2651.731089107425 C 2234.4366877879693 2642.077294165191 2289.6248273151505 2631.414071995157 2343.4364751680587 2616.3093700228023 C 2367.791201191527 2609.481971318409 2387.0253781867004 2608.5092505352554 2410.6276220948994 2618.6769357025514 C 2528.620488413572 2669.4235954274122 2643.4933069372255 2660.742521268331 2753.3924022111732 2594.413975790701 C 2769.0844072978844 2585.0171259609983 2780.334932582275 2584.5950018475546 2796.081997335956 2593.7899662316977 C 2941.255985915938 2678.3249082543766 3086.6685663861263 2762.5111390529073 3232.7418628599653 2845.4309975111064 C 3256.380813212812 2858.8104965850384 3265.5023647076605 2873.6031937778916 3264.804942259362 2901.2798530419386 C 3260.5837011249255 3061.6503097058926 3400.416902008728 3192.6556106520243 3563.4485759096087 3175.2751091115383 C 3723.507027794061 3158.2616720175256 3836.911588531824 3004.2047238329033 3799.7830197711028 2848.4225727498592 C 3755.276455636279 2661.7335952738076 3553.0606520744295 2577.4923048083065 3389.7169733940464 2678.3983211436716 C 3372.501650854473 2689.006483646735 3360.0581661190463 2691.9062927738696 3341.6865905730842 2681.151304492217 C 3203.4684732537617 2600.3971262682076 3064.9199979326145 2520.193544713907 2925.802572719434 2440.9993903874065 C 2905.228610494635 2429.308387767249 2902.493980368413 2418.4432801516546 2909.046080737952 2396.401060140965 C 2951.0015469697896 2255.0445418043005 2922.480639478855 2129.288262442729 2821.2626183639886 2020.9858975109378 C 2801.4778446991063 1999.806278949459 2708.6472461861426 1851.5673022414303 2695.708224447977 1824.2393542015325 C 2685.467126391387 1802.6192583042862 2689.816840082089 1791.0750814627174 2710.409155529212 1779.255606286294 C 2921.34273969479 1658.4546969521052 3131.964319080866 1537.048131281236 3342.2188340204693 1415.0726157183342 C 3359.158858225188 1405.2903482198346 3370.647975399786 1405.125169218922 3387.2759948250023 1416.283928391694 C 3446.538549708031 1456.0553611670189 3512.977214519603 1468.645671681035 3582.6827529047823 1456.4407788358153 C 3718.368125543442 1432.65500270438 3816.7046907534977 1309.8719453592378 3804.60991724222 1164.936548669464 C 3791.4506568361708 1007.7044930228523 3637.228529650636 890.1704572622708 3483.1899346883374 924.2707443395914 C 3348.0184522747395 954.2048499494458 3263.098092583264 1059.8459976443096 3264.658116480773 1198.7248309672825 C 3264.8783551486567 1222.3821345424526 3258.3079015567937 1235.871752950327 3237.2016958846098 1247.9481732392812 C 3023.606894482104 1370.1622806923906 2810.544336526984 1493.2022831500633 2597.86719624066 1616.9764145006818 C 2578.6880789124575 1628.1168204511305 2568.20838896566 1625.8043144383523 2552.77332899148 1610.938204356205 C 2452.5647351044136 1514.4002549338659 2331.984064438108 1460.1848361898378 2194.4266631224373 1442.9878668725885 C 2147.9930106436314 1437.151542173671 2147.9746574213077 1437.3901340638786 2147.9746574213077 1389.469870576858 C 2147.956304198984 1138.2876698555408 2148.580313757988 887.1054691342233 2147.2221753060385 635.9416216352294 C 2147.038643082802 600.8869669970796 2155.224180239145 580.5699498848118 2188.076448198458 561.7028373361113 C 2305.8490758492467 494.0345066288559 2350.612585096601 348.36498104613656 2296.7275243543986 224.15037235975072 C 2242.3836330541044 98.85292355627017 2103.559859398102 31.91872174196029 1973.3621002342104 71.58003518334326 C 1854.855343690476 107.68082349394031 1788.802096547701 191.38987051205586 1777.1845068168375 313.2185602963687 C 1768.2464875452256 407.2237650380455 1812.716345235402 511.6536000595489 1920.0092829393932 570.2921453835742 C 1936.4904765860206 579.2852243221571 1947.9795937606184 587.1954631436454 1947.9061808713236 609.806633046368 C 1947.025226199789 886.7384046877504 1947.0802858667598 1163.6151166621619 1947.7777083150581 1440.5468883035444 C 1947.8144147597056 1462.497342202616 1937.8119085933226 1469.9303972436896 1919.9175168277748 1478.996889071567 C 1866.3444608650739 1505.9944791096395 1808.8621685474377 1529.6150762401624 1763.3828836294615 1567.2391820036214 C 1710.9110210061788 1610.5344334650847 1661.8712109574165 1635.5682287145278 1588.825386109335 1635.5682287145278 C 1581.704335847763 1635.347990046644 1577.1160302668536 1636.027059272619 1569.7013284481036 1635.8802334940297 C 1551.605051236996 1635.4948158252332 1531.2696809024044 1634.742333709964 1516.4586304872282 1626.2814982187667 C 1301.010153630035 1503.4066747620063 1086.6812233345836 1378.512996849646 870.9574481425359 1256.0419442840057 C 840.1423878611466 1238.569676631902 825.2762777789995 1219.831036639467 830.4151800296182 1184.33590466555 C 832.4707409298658 1170.1855702540247 828.1026740168397 1155.0258086146991 825.7901680040613 1140.45335008973 C 804.7390219988479 1007.7779059121468 674.9817401707232 896.7959705211044 518.3553408607916 922.5271882188457 C 364.7021635672895 947.8179285808196 267.13643369482685 1086.8619409047055 292.5005869460953 1235.6882207270908 C 324.8389646803465 1425.7541911106916 541.7373461011072 1521.9617825312052 705.3746763386687 1417.9907780677925 C 723.8380179962492 1406.2630690029875 736.6118607335015 1405.3454078868056 755.5340329491729 1416.3756945033124 C 917.7031054008432 1510.9682023593455 1080.5512470784884 1604.441163653637 1243.1791500882496 1698.2811893944008 C 1271.0576947978566 1714.3769653722318 1298.826120173522 1730.5828606840046 1326.5211326598926 1746.660283439512 C 1139.7036826275755 1944.6181394222779 1118.7259495116566 2157.2402200416304 1254.6315608182003 2389.371775991011 L 1254.6315608182003 2389.371775991011 Z " fill-rule="evenodd" fill="rgb(37,131,255)"/><path d=" M 1703.936796523196 1749.706918345236 C 1746.6998045372738 1753.4876821439057 1767.971189210371 1739.1171090644966 1799.2083736052039 1710.0823113485005 C 1934.0678512393001 1584.7481561003726 2093.171935562923 1545.9494441082009 2267.8579056393146 1603.9639798732223 C 2439.607360143925 1661.005794855091 2546.111109287999 1783.0547233072875 2581.3860025940326 1962.1087602967054 C 2588.286814187721 1997.163414934855 2602.088437375097 2018.2512673847157 2633.3990346592245 2036.108952705616 C 2722.9627595985808 2087.1125575430074 2774.5169611056813 2197.4521301527225 2756.824454785694 2289.3650675495046 C 2733.864573658822 2408.385714318301 2655.8266723387105 2490.90180188538 2545.487099728996 2508.3924227598077 C 2486.6833754040576 2517.7709193671867 2428.356834859534 2511.0352867744114 2376.637454351521 2479.2107992652222 C 2353.457334556765 2464.9136390751078 2335.1224654554503 2466.473662972617 2311.1715103231018 2476.4945223613236 C 2157.555039474247 2541.0978649405315 2008.7838193188327 2530.1226379909954 1867.3722413151975 2441.2012758329665 C 1845.6603793063332 2427.4914187572085 1827.490689205931 2426.4269318624374 1803.98021140935 2434.135285238366 C 1604.719276641606 2499.234164820312 1397.4746901630792 2386.141608862051 1346.8748562168075 2187.4496239863397 C 1288.8970268964333 1959.5943688383668 1470.6489875674263 1739.300641287733 1703.936796523196 1749.706918345236 L 1703.936796523196 1749.706918345236 Z " fill-rule="evenodd" fill="rgb(37,131,255)"/><path d=" M 3459.257332778313 2907.0060584069133 C 3459.257332778313 2862.4260813827955 3491.283705733062 2830.050997203897 3535.147907086558 2830.1427633155154 C 3577.378671653251 2830.363001983399 3613.3693406299058 2865.2157711759887 3613.7914647433495 2906.473814959528 C 3614.2502953014405 2946.1901880678815 3575.800294533418 2984.603482391258 3535.771916645562 2984.676895280552 C 3492.917142519866 2984.676895280552 3459.2756860006366 2950.558254980908 3459.257332778313 2907.0060584069133 L 3459.257332778313 2907.0060584069133 Z " fill-rule="evenodd" fill="rgb(37,131,255)"/><path d=" M 1970.3888782177808 331.7002551762727 C 1970.5540572186935 288.5334762710748 2004.2138669602468 255.2223777536708 2047.7110038672704 255.18567130902352 C 2091.281553663588 255.14896486437624 2124.6844182926106 288.3866504924857 2124.8495972935234 331.71860839859636 C 2124.959716627465 373.2703037393141 2088.6753960936317 410.01345483123856 2047.8578296458593 409.49956460617665 C 2006.3611939721127 409.09579371505663 1970.2604056615155 372.79311995889947 1970.3888782177808 331.7002551762727 L 1970.3888782177808 331.7002551762727 Z " fill-rule="evenodd" fill="rgb(37,131,255)"/><path d=" M 635.9260830660203 2907.318063186415 C 635.7609040651075 2950.8335533157624 601.8257959886998 2985.025606504701 559.1912605308875 2984.676895280552 C 518.9059375305008 2984.291477611756 481.66724943583813 2946.7224315152675 481.48371721260173 2906.1618101800264 C 481.2818317670417 2865.6378952894324 518.1351021929079 2830.1427633155154 560.4209264265712 2830.1427633155154 C 604.2300681130964 2830.179469760162 636.091262066933 2862.7197329399733 635.9260830660203 2907.318063186415 L 635.9260830660203 2907.318063186415 Z " fill-rule="evenodd" fill="rgb(37,131,255)"/><path d=" M 2048.5552520941574 3689.1102745064477 C 2092.0156825565336 3689.403926063626 2125.03312951676 3722.4580794684994 2124.8312440711998 3765.478032595108 C 2124.555945736345 3808.332806720804 2091.0429617733807 3840.616124788084 2046.9952281966484 3840.34082645323 C 2003.3145590663885 3840.1205877853463 1969.9116944373664 3806.8278424902655 1970.3888782177808 3763.936361919922 C 1970.884415220519 3721.283473239786 2004.9296426308688 3688.779916504622 2048.5552520941574 3689.1102745064477 L 2048.5552520941574 3689.1102745064477 Z " fill-rule="evenodd" fill="rgb(37,131,255)"/><path d=" M 561.2835278757823 1265.5489134476506 C 517.2357942990496 1265.934331116447 482.8051492199037 1233.8345452724031 481.5020704349254 1191.2734227038854 C 480.198991649947 1149.795140252462 515.033407620213 1114.9790775045196 558.4571316379419 1114.355067945516 C 603.7895907773292 1113.6759987195414 635.2837202846929 1143.8854026642505 635.9260830660203 1188.5754990223104 C 636.605152291995 1233.485834048254 605.8635048999004 1265.1451425565303 561.2835278757823 1265.5489134476506 L 561.2835278757823 1265.5489134476506 Z " fill-rule="evenodd" fill="rgb(37,131,255)"/><path d=" M 3534.193539525729 1265.6590327815925 C 3489.6686221685823 1265.3470280020906 3458.8168554425456 1233.632659826843 3459.257332778313 1188.7223248008997 C 3459.6978101140803 1144.1423477767814 3491.283705733062 1113.8228244981306 3536.6161648724496 1114.410127612487 C 3580.0765953348255 1115.0157839491671 3614.672419414884 1149.5198419176074 3613.644638964761 1191.2183630369145 C 3612.6168585146365 1233.4674808259304 3577.9476215452837 1265.9710375610941 3534.193539525729 1265.6590327815925 L 3534.193539525729 1265.6590327815925 Z " fill-rule="evenodd" fill="rgb(37,131,255)"/></svg>