<svg width="500" height="500" viewBox="0 0 500 500" fill="none" xmlns="http://www.w3.org/2000/svg">
<path d="M205.563 6.68977C208.5 6.68843 211.382 7.47877 213.908 8.97767L344.345 86.3114C346.791 87.763 348.817 89.8266 350.223 92.2992C351.63 94.7718 352.37 97.5682 352.369 100.413V450.502C352.369 453.389 351.607 456.224 350.161 458.721C348.714 461.219 346.634 463.29 344.131 464.725L297.968 491.163C295.485 492.591 292.67 493.343 289.804 493.343C286.939 493.343 284.124 492.591 281.64 491.163L155.937 418.485C153.433 417.054 151.35 414.986 149.902 412.491C148.453 409.996 147.688 407.162 147.686 404.276V45.4904C147.688 42.5342 148.487 39.6332 150.001 37.0944C151.514 34.5555 153.686 32.473 156.285 31.0673L197.74 8.65656C200.144 7.3599 202.833 6.68387 205.563 6.68977V6.68977ZM205.563 6.48268e-07C201.74 0.00463548 197.977 0.956123 194.611 2.76956L153.156 25.1803C149.484 27.1508 146.415 30.0799 144.275 33.6561C142.135 37.2324 141.003 41.322 141 45.4904V404.276C141.005 408.324 142.073 412.299 144.096 415.805C146.119 419.31 149.026 422.223 152.527 424.252L278.297 496.929C281.797 498.941 285.762 500 289.798 500C293.834 500 297.799 498.941 301.298 496.929L347.461 470.491C350.988 468.463 353.918 465.539 355.953 462.015C357.989 458.492 359.059 454.492 359.055 450.422V100.413C359.045 96.4094 357.999 92.4761 356.019 88.9965C354.039 85.517 351.192 82.6099 347.755 80.5582L217.318 3.22447C213.76 1.11286 209.7 -0.000980978 205.563 6.48268e-07V6.48268e-07Z" fill="black"/>
<path d="M175.599 76.399C175.1 76.1167 174.535 75.97 173.962 75.9733C173.388 75.9767 172.826 76.13 172.33 76.418C171.834 76.706 171.421 77.1188 171.134 77.6154C170.847 78.1119 170.694 78.675 170.691 79.2488L170.584 395.635C170.581 395.917 170.655 396.195 170.798 396.437C170.904 396.625 171.046 396.79 171.215 396.923C171.385 397.056 171.579 397.153 171.787 397.211C171.994 397.268 172.211 397.283 172.425 397.256C172.638 397.229 172.845 397.16 173.031 397.053L281.002 335.681C281.256 335.538 281.466 335.33 281.612 335.078C281.757 334.826 281.833 334.54 281.832 334.249V145.036C281.835 142.732 281.229 140.467 280.076 138.472C278.923 136.478 277.264 134.823 275.266 133.677L175.599 76.399ZM170.785 63.9962L280.962 127.388C283.458 128.827 285.53 130.897 286.972 133.392C288.413 135.886 289.172 138.716 289.173 141.597V467.643C289.173 468.504 288.946 469.35 288.516 470.096C288.086 470.842 287.467 471.462 286.722 471.893C285.977 472.324 285.131 472.551 284.271 472.552C283.41 472.553 282.564 472.327 281.818 471.898L166.225 405.402C165.225 404.824 164.394 403.993 163.817 402.993C163.239 401.992 162.935 400.857 162.935 399.702L163.416 68.2375C163.419 67.3759 163.648 66.5303 164.08 65.7849C164.512 65.0396 165.132 64.4207 165.878 63.9901C166.624 63.5594 167.469 63.3321 168.33 63.3308C169.191 63.3295 170.038 63.5543 170.785 63.9828V63.9962Z" fill="black"/>
</svg>
