<?xml version="1.0" standalone="no"?><!-- Generator: Gravit.io --><svg xmlns="http://www.w3.org/2000/svg" xmlns:xlink="http://www.w3.org/1999/xlink" style="isolation:isolate" viewBox="0 0 4100.000000000001 4096" width="4100.000000000001" height="4096"><path d=" M 30 542 Q 1340.1263316580726 355.57700324862833 2056 355 Q 2778.198147231524 354.4178991412394 4100.000000000001 542 L 3960.000000000001 1449 L 3810.000000000001 1115 Q 2674.462870736696 986.9072851656341 2056 988.0000000000001 Q 1452.2942345124768 989.0666416316226 344.0000000000002 1115 L 156.00000000000023 1449 L 30 542 Z " fill="rgb(255,64,129)"/><path d=" M 1137.5 1751 Q 1739.7772618919926 1715.9601779178583 2066.5 1716 Q 2392.1686580700316 1716.03969360727 2992.500000000001 1751 L 2949.500000000001 2509.9999999999995 Q 2377.265957334789 2465.8943200317176 2066.5 2465.9999999999995 Q 1757.8422026703386 2466.104963061306 1189.5000000000002 2509.999999999999 L 1137.5 1751 Z " fill="rgb(255,64,129)"/><path d=" M 1644.5000000000005 3064 Q 1915.5062137236791 3049.062271781758 2062.5000000000005 3049 Q 2211.250586243219 3048.9369839754618 2485.5000000000005 3064 L 2455.5000000000005 3733.952380952381 Q 2200.7178732479406 3718.9866042778976 2062.5000000000005 3718.9999999999995 Q 1924.633486765359 3719.013361669189 1670.5000000000007 3733.952380952381 L 1644.5000000000005 3064 Z " fill="rgb(255,64,129)"/></svg>