<svg width="500" height="439" viewBox="0 0 500 439" fill="none" xmlns="http://www.w3.org/2000/svg">
<path d="M93.6675 0.5L0 197.598L249.604 438.231L500 197.598L407.916 0.5H93.6675Z" fill="#50AF95"/>
<path d="M134.301 61.45V119.761L221.9 119.497L221.636 204.722C221.636 204.722 240.929 205.777 253.298 205.777C265.667 205.777 284.96 204.722 284.96 204.722V119.497H372.296V61.45H134.301Z" fill="white"/>
<path d="M221.636 161.714V157.492C221.636 157.492 98.1531 162.769 98.1531 191.529C98.1531 220.553 221.9 226.094 221.9 226.094V347.993H284.697V226.094C284.697 226.094 408.707 219.761 408.707 191.529C408.707 163.297 284.96 157.492 284.96 157.492V161.714C284.96 161.714 393.931 168.838 393.931 188.891C393.931 211.054 309.885 215.874 254.354 216.067C197.81 216.264 112.137 206.041 112.137 188.891C112.137 168.31 221.636 161.714 221.636 161.714Z" fill="white"/>
</svg>
