<svg width="499" height="500" viewBox="0 0 499 500" fill="none" xmlns="http://www.w3.org/2000/svg">
<path fill-rule="evenodd" clip-rule="evenodd" d="M406.724 104.933L393.028 118.661C460.763 192.915 460.763 306.717 393.028 380.971L406.724 394.7C482.111 312.772 482.111 186.545 406.724 104.612V104.933Z" fill="#595664"/>
<path fill-rule="evenodd" clip-rule="evenodd" d="M118.653 106.125C192.729 38.2223 306.259 38.2223 380.336 106.125L394.032 92.3958C312.295 16.8284 186.374 16.8284 104.637 92.3958L118.653 106.125Z" fill="#595664"/>
<path fill-rule="evenodd" clip-rule="evenodd" d="M105.87 381.109C38.2172 306.873 38.2172 193.172 105.87 118.936L92.1746 105.208C16.7876 187.141 16.7876 313.362 92.1746 395.295L105.87 381.109Z" fill="#595664"/>
<path fill-rule="evenodd" clip-rule="evenodd" d="M380.199 393.783C306.122 461.685 192.592 461.685 118.515 393.783L104.82 407.511C186.557 483.079 312.477 483.079 394.215 407.511L380.199 393.783Z" fill="#595664"/>
<path fill-rule="evenodd" clip-rule="evenodd" d="M290.902 215.037C290.902 242.494 248.079 239.154 234.474 239.154V190.783C248.079 190.783 290.902 186.481 290.902 215.037ZM302.087 290.133C302.087 320.153 250.773 316.721 234.429 316.721V263.453C250.773 263.499 302.087 258.786 302.087 290.133ZM335.87 204.191C333.131 175.544 308.478 165.934 277.297 163.005V123.512H253.192V162.227C246.846 162.227 240.364 162.227 233.927 162.456V123.512H209.959V163.234H194.619H161.11V189.09C161.11 189.09 178.915 188.769 178.641 189.09C185.315 188.353 191.369 193.048 192.337 199.706V308.484C192.044 313.202 187.995 316.785 183.288 316.497C183.261 316.497 183.233 316.497 183.206 316.492C183.526 316.767 165.675 316.492 165.675 316.492L160.882 345.368H192.291H209.548V385.731H233.653V345.963H252.918V385.548H277.069V345.643C317.791 343.172 346.188 333.104 349.748 294.892C352.625 264.14 338.198 250.411 315.143 244.874C329.159 237.735 337.97 225.15 335.87 204.191Z" fill="#F09242"/>
<path fill-rule="evenodd" clip-rule="evenodd" d="M249.357 19.4948C122.432 19.5726 19.5989 122.771 19.6765 250C19.7541 377.229 122.706 480.308 249.631 480.231C376.469 480.157 479.262 377.091 479.312 249.954C479.161 122.744 376.264 19.6824 249.357 19.6321V19.4948ZM249.357 500C111.617 499.977 -0.0273868 388.029 5.03934e-06 249.954C0.0273969 111.88 111.709 -0.0274524 249.449 5.05161e-06C387.157 0.0274625 498.783 111.917 498.806 249.954C498.655 387.987 387.061 499.849 249.357 500Z" fill="#282138"/>
</svg>
