<svg width="500" height="500" viewBox="0 0 500 500" fill="none" xmlns="http://www.w3.org/2000/svg">
<path d="M469.388 341.656C469.388 397.443 325.536 443.687 195.918 443.687C66.3005 443.687 0 397.443 0 341.656C0 285.868 67.3209 239.623 196.939 239.623C326.557 239.623 469.388 285.868 469.388 341.656Z" fill="black"/>
<path d="M177 270.482C177 328.641 206.5 365.475 206.5 365.475C206.5 365.475 111.5 329.284 111.5 213.987C111.5 121.138 197.551 58.4999 270 58.4999C363 58.4999 404.082 127.402 404.082 127.402C404.082 127.402 372.092 111.496 342.5 111.496C232.296 111.496 177 198.039 177 270.482Z" fill="#ED1E79"/>
<path d="M272.449 379.963C361.226 379.963 433.194 308.001 433.194 219.232C433.194 130.462 361.226 58.4999 272.449 58.4999C183.672 58.4999 111.704 130.462 111.704 219.232C111.704 308.001 183.672 379.963 272.449 379.963Z" stroke="black" stroke-width="3"/>
<path d="M337.755 433.02C426.532 433.02 498.5 361.058 498.5 272.288C498.5 183.519 426.532 111.557 337.755 111.557C248.978 111.557 177.01 183.519 177.01 272.288C177.01 361.058 248.978 433.02 337.755 433.02Z" fill="white" stroke="black" stroke-width="3"/>
<path d="M342.857 392.207C409.655 392.207 463.806 338.061 463.806 271.268C463.806 204.476 409.655 150.329 342.857 150.329C276.059 150.329 221.908 204.476 221.908 271.268C221.908 338.061 276.059 392.207 342.857 392.207Z" stroke="black" stroke-width="3"/>
<path d="M282.454 301.878V241.496H317.012V249.506H291.98V266.207H309.399V274.257H291.98V293.309H318.527V301.878H282.454Z" fill="black"/>
<path d="M320.679 249.506V241.496H362.811V249.506H346.508V301.878H336.982V249.506H320.679Z" fill="black"/>
<path d="M367.833 301.878V241.496H377.36V266.167H399.362V241.496H408.889V301.878H399.362V274.177H377.36V301.878H367.833Z" fill="black"/>
<path d="M113.151 192.528L180.498 243.544" stroke="black" stroke-width="3"/>
<path d="M113 237.985L180 303.98" stroke="black" stroke-width="3"/>
</svg>
