<svg width="500" height="500" viewBox="0 0 500 500" fill="none" xmlns="http://www.w3.org/2000/svg">
<path d="M105.025 315.979L143.838 275.832L95.5877 210.724L34.1503 123.805C11.7225 162.069 -0.0678637 205.632 0.000293834 249.984C0.000293834 326.229 34.1503 394.499 88.0002 440.346L165.988 385.25C139.304 368.653 118.101 344.565 105.025 315.992V315.979ZM184 105.018L224.15 143.828L289.262 95.5814L376.187 34.148C337.921 11.7217 294.355 -0.0678593 250 0.000293815C173.75 0.000293815 105.475 34.148 59.6252 87.9945L114.725 165.977C131.322 139.295 155.413 118.093 183.988 105.018H184ZM356.162 224.135L404.412 289.244L465.85 376.163C488.278 337.899 500.068 294.335 500 249.984C500 173.739 465.85 105.468 412 59.6213L334 114.718C360.683 131.314 381.886 155.403 394.962 183.976L356.15 224.135H356.162ZM440.375 411.973L385.275 333.991C368.678 360.673 344.588 381.875 316.012 394.949L275.85 356.139L210.738 404.386L123.813 465.819C162.079 488.246 205.645 500.035 250 499.967C326.25 499.967 394.525 465.819 440.375 411.973V411.973Z" fill="black"/>
</svg>
