<svg width="104" height="64" viewBox="0 0 104 64" fill="none" xmlns="http://www.w3.org/2000/svg">
<path d="M102.229 14.6479L54.6122 62.2009C53.7993 63.0138 52.8367 63.4202 51.7243 63.4202C50.612 63.4202 49.6494 63.0138 48.8365 62.2009L1.21931 14.6479C0.406436 13.835 0 12.8617 0 11.728C0 10.5942 0.406436 9.62091 1.21931 8.80803L8.87221 1.21931C9.68508 0.406436 10.6477 0 11.76 0C12.8724 0 13.835 0.406436 14.6479 1.21931L51.7243 38.2958L88.8008 1.21931C89.6136 0.406436 90.5763 0 91.6886 0C92.801 0 93.7636 0.406436 94.5764 1.21931L102.229 8.80803C103.042 9.62091 103.449 10.5942 103.449 11.728C103.449 12.8617 103.042 13.835 102.229 14.6479Z" fill="#282821"/>
</svg>
