<svg width="104" height="64" viewBox="0 0 104 64" fill="none" xmlns="http://www.w3.org/2000/svg">
<path d="M1.21931 48.7723L48.8365 1.21931C49.6494 0.406435 50.612 0 51.7243 0C52.8367 0 53.7993 0.406435 54.6122 1.21931L102.229 48.7723C103.042 49.5852 103.449 50.5585 103.449 51.6922C103.449 52.826 103.042 53.7993 102.229 54.6122L94.5764 62.2009C93.7636 63.0138 92.801 63.4202 91.6886 63.4202C90.5763 63.4202 89.6136 63.0138 88.8008 62.2009L51.7243 25.1244L14.6479 62.2009C13.835 63.0138 12.8724 63.4202 11.76 63.4202C10.6477 63.4202 9.68509 63.0138 8.87222 62.2009L1.21931 54.6122C0.406443 53.7993 0 52.826 0 51.6922C0 50.5585 0.406443 49.5852 1.21931 48.7723Z" fill="#282821"/>
</svg>
